<svg width="158" height="154" viewBox="0 0 158 154" fill="none" xmlns="http://www.w3.org/2000/svg">
<path d="M127.176 148.573H116.991L115.309 153.982H109.918L119.108 125.526H125.077L134.267 153.982H128.84L127.158 148.573H127.176ZM125.783 144.014L122.074 132.129L118.366 144.014H125.765H125.783Z" fill="white"/>
<path d="M155.771 141.807C156.694 143.11 157.164 144.611 157.164 146.294C157.164 147.813 156.838 149.152 156.151 150.31C155.464 151.467 154.505 152.372 153.239 153.023C151.972 153.674 150.471 154 148.734 154H137.699V125.599H148.246C149.982 125.599 151.484 125.906 152.732 126.539C153.98 127.155 154.939 128.023 155.59 129.144C156.241 130.266 156.567 131.514 156.567 132.925C156.567 134.59 156.169 135.964 155.373 137.068C154.577 138.189 153.528 138.967 152.207 139.438C153.655 139.727 154.83 140.541 155.753 141.844L155.771 141.807ZM142.837 137.285H147.522C148.734 137.285 149.675 136.977 150.344 136.362C150.995 135.747 151.339 134.879 151.339 133.739C151.339 132.6 151.013 131.713 150.344 131.098C149.693 130.483 148.752 130.157 147.522 130.157H142.837V137.285ZM150.923 148.356C151.61 147.705 151.972 146.782 151.972 145.588C151.972 144.394 151.61 143.417 150.869 142.712C150.127 142.006 149.15 141.681 147.902 141.681H142.855V149.333H148.011C149.259 149.333 150.236 149.007 150.923 148.356Z" fill="white"/>
<path d="M5.11945 148.175C5.11945 148.881 5.69833 149.459 6.40384 149.459H17.6377L16.1724 153.982H4.21496C1.88135 153.982 0 152.101 0 149.767V125.581H5.11945V148.193V148.175Z" fill="white"/>
<path d="M36.7578 148.573H26.5732L24.8908 153.982H19.5L28.6897 125.526H34.6594L43.8491 153.982H38.4221L36.7398 148.573H36.7578ZM35.3649 144.014L31.6565 132.129L27.948 144.014H35.3468H35.3649Z" fill="white"/>
<path d="M75.1814 125.581V153.982H70.0619V135.494L63.2058 153.982H59.3164L52.4242 135.494V153.982H47.3047V125.581H53.1297L61.2702 146.71L69.4106 125.581H75.1995H75.1814Z" fill="white"/>
<path d="M85.3695 125.581V153.982H80.25V125.581H85.3695Z" fill="white"/>
<path d="M96.8179 149.459C96.1124 149.459 95.5335 148.881 95.5335 148.175V132.672L90.4141 136.634V149.749C90.4141 152.082 92.2954 153.964 94.629 153.964H106.587L108.052 149.441H96.8179V149.459Z" fill="white"/>
<path d="M95.5321 128.692L90.3945 132.672V125.581H95.5321V128.692Z" fill="#FF9833"/>
<path d="M82.9637 0.217099V7.48928L64.3672 26.0858V2.36981C68.8173 0.832162 73.6112 0 78.5859 0C80.0512 0 81.5165 0.0723787 82.9456 0.217099H82.9637Z" fill="#FF9833"/>
<path fillRule="evenodd" clipRule="evenodd" d="M96.4335 71.781H112.009C117.924 62.8445 122.23 53.076 122.23 43.6511C122.23 21.0205 105.026 2.42402 82.9565 0.217041V7.48922L64.36 26.0857V2.36975C47.2288 8.249 34.9276 24.5119 34.9276 43.6511C34.602 73.3367 78.5787 106.984 78.5787 106.984C78.5787 106.984 87.2438 100.363 96.8496 90.3775H96.4154C78.7777 90.3775 64.3419 75.9598 64.3419 58.304V35.1126L82.9384 16.5161V58.304C82.9384 65.6666 89.0528 71.781 96.4154 71.781H96.4335Z" fill="white"/>
</svg>
