<svg width="90" height="90" viewBox="0 0 90 90" fill="none" xmlns="http://www.w3.org/2000/svg">
<path d="M23.1648 21.0853L1.58273 12.992L23.3473 5.26904L44.8613 13.1402L23.1648 21.0853ZM24.5711 39.8772C29.183 38.4159 33.8502 38.5972 38.1642 40.0797L46.5063 23.9453V15.5454L24.5711 23.5781V39.8772ZM62.4139 5.51777L62.453 70.4106L90 58.7522L62.4139 5.51777ZM40.7665 41.1961C46.3286 44.28 50.4932 48.7789 51.1226 55.5416C50.6872 60.6797 48.5682 65.4073 45.0434 69.0184C41.2706 72.8835 36.1763 75.1004 31.0671 75.1004C25.9207 75.1004 20.7993 73.2199 17.0158 69.9412C13.1231 66.568 10.9654 62.0464 10.9278 57.1971C11.1018 50.2959 14.2021 44.6771 21.7468 41.005V23.5696L0 15.4148V44.2441L11.8048 49.6353C9.51961 53.186 8.19316 57.4123 8.19316 61.9487C8.19316 74.5311 18.3932 84.7311 30.9756 84.7311C41.6232 84.7311 50.5638 77.4265 53.062 67.5555L59.2522 70.4109L59.213 5.51812L40.7665 41.1961Z" fill="white"/>
</svg>
