<svg width="70" height="70" viewBox="0 0 70 70" fill="none" xmlns="http://www.w3.org/2000/svg">
<path d="M37.8783 2.5332H33.7812V67.3382H37.8783V2.5332Z" fill="black"/>
<path d="M14.6091 13.3606C17.5987 13.3606 20.0229 10.9366 20.0229 7.94576C20.0229 4.95613 17.5989 2.5332 14.6091 2.5332C11.617 2.5332 9.19531 4.95613 9.19531 7.94576C9.19531 10.9366 11.617 13.3606 14.6091 13.3606Z" fill="black"/>
<path d="M25.1617 21.0816C24.0644 17.3769 21.6067 14.9219 18.8393 14.9219C16.7893 14.9219 14.6078 14.9219 14.6078 14.9219C14.6078 14.9219 12.4264 14.9219 10.3765 14.9219C7.60893 14.9219 5.14868 17.3771 4.05138 21.0816L0.0653401 35.2252C-0.229015 36.4167 0.499012 37.6325 1.68915 37.9243C2.88188 38.2186 4.07462 37.5215 4.36884 36.3301L8.34216 22.2303H9.51425L2.60038 46.7563H9.11913V64.9492C9.11913 66.3395 10.2473 67.4663 11.6363 67.4663C13.0278 67.4663 14.1558 66.3395 14.1558 64.9492V46.7563H15.5423V64.9492C15.5423 66.3395 16.6705 67.4663 18.062 67.4663C19.451 67.4663 20.5792 66.3395 20.5792 64.9492V46.7563H26.6126L19.6988 22.2304H20.8709L24.8441 36.3302C25.1383 37.5216 26.3337 38.2187 27.5238 37.9244C28.7165 37.6326 29.442 36.4167 29.1476 35.2253L25.1617 21.0816Z" fill="black"/>
<path d="M57.8552 13.3606C60.8474 13.3606 63.269 10.9366 63.269 7.94576C63.269 4.95613 60.8474 2.5332 57.8552 2.5332C54.8657 2.5332 52.4414 4.95613 52.4414 7.94576C52.4415 10.9366 54.8657 13.3606 57.8552 13.3606Z" fill="black"/>
<path d="M64.5198 14.8887H50.2947C47.6719 14.8887 44.8164 17.7439 44.8164 20.367V38.5638C44.8164 39.8754 45.8801 40.9391 47.1916 40.9391C48.503 40.9391 49.5667 39.8754 49.5667 38.5638V23.6031H50.6613V64.2178C50.6613 65.941 52.0579 67.3377 53.7824 67.3377C55.507 67.3377 56.9036 65.941 56.9036 64.2178V40.6472H57.9105V64.2178C57.9105 65.941 59.3071 67.3377 61.0317 67.3377C62.7536 67.3377 64.153 65.941 64.153 64.2178V23.6031H65.2475V38.5637C65.2475 39.8753 66.3112 40.9389 67.6226 40.9389C68.9341 40.9389 69.9978 39.8753 69.9978 38.5637V20.3669C69.9981 17.7439 67.1427 14.8887 64.5198 14.8887Z" fill="black"/>
</svg>
