<svg width="100" height="100" viewBox="0 0 100 100" fill="none" xmlns="http://www.w3.org/2000/svg">
<path d="M49.9987 87.3411C41.6293 84.855 34.6751 79.7842 29.1362 72.1286C23.6001 64.4703 20.832 55.8439 20.832 46.2495V23.7161L49.9987 12.8203L79.1654 23.7161V46.2495C79.1654 55.8439 76.3973 64.4689 70.8612 72.1245C65.3223 79.7828 58.3681 84.855 49.9987 87.3411ZM49.9987 82.9161C57.2209 80.6245 63.1931 76.0411 67.9154 69.1661C72.6376 62.2911 74.9987 54.6523 74.9987 46.2495V26.562L49.9987 17.2703L24.9987 26.562V46.2495C24.9987 54.6523 27.3598 62.2911 32.082 69.1661C36.8043 76.0411 42.7765 80.6245 49.9987 82.9161Z" fill="black"/>
<path d="M39.6111 61V44.2H33L50 33L67 44.2H60.3889V61H54.7222V54.4667C54.7222 52.9203 53.4536 51.6667 51.8889 51.6667H48.1111C46.5464 51.6667 45.2778 52.9203 45.2778 54.4667V61H39.6111Z" fill="black" stroke="black" stroke-linecap="round" stroke-linejoin="round"/>
</svg>
