<svg width="141" height="100" viewBox="0 0 141 100" fill="none" xmlns="http://www.w3.org/2000/svg">
<path d="M91.4704 46.4656C91.9532 44.8654 92.1459 43.2041 92.0436 41.508C91.5956 34.0987 85.1075 28.021 77.5813 27.9612C71.5572 27.9264 66.1363 31.5928 63.9232 36.9803C61.7164 35.2884 58.9162 34.4646 56.052 34.7387C51.8666 35.1381 48.2163 37.9807 46.7525 41.9796C46.1187 43.7092 45.9469 45.4846 46.2377 47.2726C42.4607 49.1315 40 52.9801 40 57.2045C40 63.1736 44.4602 67.5607 50.6965 67.8418C52.3091 70.2754 55.5212 71.2062 57.3474 71.2062C60.1915 71.2062 62.0838 70.7819 64.8026 68.461C66.0396 69.6367 68.3716 71.1951 72.0442 71.1951C76.1259 71.1951 78.6965 69.3668 79.9224 68.198C86.3569 70.8806 90.9333 69.4336 93.6785 67.6846C97.9133 64.9908 99.8418 60.363 99.8418 57.2045C99.8418 52.0632 96.35 47.7206 91.4704 46.4656ZM92.1494 65.2802C88.8823 67.359 84.7401 67.3312 80.1721 65.1926L79.1411 64.7111L78.4426 65.61C78.2255 65.8897 76.1989 68.3455 72.0442 68.3455C67.911 68.3455 66.194 65.7756 66.13 65.6782L65.2026 64.188L63.9344 65.4013C61.1286 68.0895 59.836 68.3566 57.3474 68.3566C56.1682 68.3566 53.6358 67.6206 52.8399 65.8479L52.4629 65.0061H51.3365C46.3393 65.0061 42.8496 61.7975 42.8496 57.2045C42.8496 53.7593 45.0661 50.6467 48.3645 49.4613L49.6126 49.0118L49.2543 47.7345C48.8007 46.1191 48.8591 44.512 49.4282 42.9592C50.517 39.9844 53.2233 37.8708 56.3233 37.5744C56.594 37.5494 56.8639 37.5369 57.1324 37.5369C59.5932 37.5369 61.9272 38.611 63.4968 40.4992L65.3529 42.7352L65.9832 39.8981C67.1562 34.6191 71.976 30.8108 77.4651 30.8108C77.4964 30.8108 77.5277 30.8108 77.559 30.8108C83.6179 30.8595 88.8399 35.735 89.1996 41.6805C89.3102 43.5199 88.9874 45.3079 88.2402 46.9929L87.4374 48.8017L89.4083 48.9882C93.7321 49.3987 96.9922 52.9301 96.9922 57.2045C96.9922 59.6867 95.3288 63.2571 92.1494 65.2802Z" fill="black"/>
<path d="M89.6646 39.5614C91.3906 39.685 93.2399 38.079 93.2399 36.2259C93.3632 34.3728 91.8838 32.6432 90.0345 32.6432C88.1852 32.5197 86.4591 34.0022 86.3358 35.8553C86.2126 37.7084 87.8153 39.4379 89.6646 39.5614ZM111.733 69.5815C109.884 69.5815 108.281 71.1875 108.158 73.0406C108.158 74.8936 109.884 76.4997 111.61 76.6232C113.459 76.6232 115.185 74.8936 115.185 73.1641C115.185 71.311 113.582 69.705 111.733 69.5815ZM33.1989 29.8018C35.1715 29.8018 36.651 28.3194 36.651 26.3427C36.651 24.3661 35.1715 22.8837 33.1989 23.0072C31.103 23.0072 29.9935 24.2426 29.8702 26.2192C29.7469 28.1958 31.2263 29.6783 33.1989 29.8018ZM81.8975 34.3728C83.8701 34.1257 85.103 33.0139 85.2263 31.0372C85.2263 28.9371 83.7468 27.4546 81.7742 27.4546C79.8016 27.4546 78.3222 28.9371 78.4454 30.9137C78.4454 32.8903 79.9249 34.4963 81.8975 34.3728ZM50.5825 48.4563C52.4318 48.4563 53.9112 46.8503 53.7879 44.8736C53.7879 43.0205 52.1852 41.5381 50.2126 41.7851C48.1167 41.9087 47.0071 43.1441 47.0071 45.1207C47.0071 47.0973 48.4866 48.5798 50.5825 48.4563ZM39.1167 64.1457C41.0893 64.2693 42.6921 62.9103 42.9386 61.0573C43.0619 59.0806 41.7058 57.4746 39.7332 57.3511C37.6373 57.3511 36.4044 58.3394 36.1578 60.316C35.788 62.2926 37.1441 63.8987 39.1167 64.1457ZM109.144 62.0456C111.117 61.922 112.719 60.316 112.596 58.4629C112.473 56.6098 110.87 55.1274 108.897 55.2509C106.802 55.3745 105.815 56.7334 105.692 58.71C105.569 60.4396 107.295 62.0456 109.144 62.0456ZM81.5276 56.9805C81.6509 58.8335 83.2537 60.5631 85.103 60.316C87.0756 60.0689 88.3084 58.9571 88.3084 56.8569C88.4317 55.0038 86.829 53.3978 84.9797 53.3978C83.0071 53.3978 81.5276 55.1274 81.5276 56.9805ZM60.5688 54.2626C60.5688 56.3628 61.6783 57.4746 63.6509 57.7217C65.5003 57.9688 67.2263 56.3628 67.3496 54.5097C67.4729 52.6566 65.8701 50.927 64.0208 50.8035C62.1715 50.8035 60.4455 52.286 60.5688 54.2626ZM26.788 42.7735C26.788 40.6733 25.6784 39.4379 23.5825 39.3144C21.6099 39.1908 20.0072 40.5498 20.0072 42.5264C19.8839 44.3795 21.3633 45.9855 23.3359 46.109C25.3085 46.109 26.9113 44.6265 26.788 42.7735ZM74.2537 43.7618C76.2263 43.5147 77.3359 42.4028 77.4591 40.3027C77.4591 38.326 75.9797 36.8436 74.0071 36.8436C72.0345 36.9671 70.555 38.4496 70.555 40.4262C70.6783 42.2793 72.2811 43.8853 74.2537 43.7618ZM59.7057 38.8202C61.5551 39.0673 63.1578 37.4613 63.2811 35.4846C63.2811 33.6316 61.8016 31.902 59.9523 31.902C58.103 31.902 56.5003 33.3845 56.5003 35.3611C56.5003 37.4613 57.7331 38.5731 59.7057 38.8202ZM116.665 34.4963C118.637 34.3728 119.87 33.2609 119.993 31.2843C120.117 29.3077 118.514 27.7017 116.665 27.7017C114.692 27.5781 113.213 29.1841 113.213 31.1608C113.213 33.1374 114.692 34.6199 116.665 34.4963ZM23.3359 67.3578C23.2127 69.2108 24.8154 70.8168 26.788 70.9404C28.6373 70.9404 30.24 69.3344 30.3633 67.4813C30.3633 65.6282 28.7606 64.0222 26.788 64.1457C24.6921 64.1457 23.5825 65.3811 23.3359 67.3578Z" fill="black"/>
</svg>
