<svg width="70" height="74" viewBox="0 0 70 74" fill="none" xmlns="http://www.w3.org/2000/svg">
<path d="M37.9648 7.87447C37.9648 3.53312 41.4979 0 45.8393 0C50.1806 0 53.7137 3.53312 53.7137 7.87447C53.7137 12.2158 50.1806 15.749 45.8393 15.749C41.4979 15.749 37.9648 12.2158 37.9648 7.87447Z" fill="black"/>
<path d="M36.9939 15.748C36.9939 15.748 25.2399 16.002 22.9999 16.4177C20.76 16.8334 13.0471 29.5803 13.0471 29.5803C13.0471 29.5803 11.9156 32.3745 13.0471 33.0904C14.1787 33.7831 15.8414 34.6376 15.8414 34.6376C15.8414 34.6376 17.9428 35.3303 18.6356 34.6376C19.3284 33.9448 25.4939 23.5763 25.4939 23.5763H32.3523L26.1867 34.9609C26.1867 34.9609 24.7089 36.6004 24.6858 42.3504C24.6627 48.1004 24.6858 52.996 24.6858 52.996H9.95278C9.95278 52.996 2.1014 53.1345 0 61.1244H28.9809C28.9809 61.1244 33.3685 62.0943 33.4839 57.1988C33.5994 52.3032 34.4538 45.7219 34.4538 45.7219L47.3393 69.2529C47.3393 69.2529 49.5792 75.4186 59.2549 72.763L42.4438 39.7179L47.2008 28.7952C47.2008 28.7952 51.6806 35.238 53.2278 35.9307C54.775 36.6235 65.2358 37.6165 67.0601 36.6235C68.9075 35.6536 70.4546 34.4297 69.8773 31.8896C69.3231 29.3494 67.0601 28.9338 67.0601 28.9338L57.8463 28.6566C57.8463 28.6566 49.8564 18.0804 47.4779 17.2721C45.0994 16.4639 36.9708 15.7942 36.9708 15.7942L36.9939 15.748Z" fill="black"/>
</svg>
