<svg width="100" height="100" viewBox="0 0 100 100" fill="none" xmlns="http://www.w3.org/2000/svg">
<path d="M47.1971 6.71589C47.8963 6.0796 48.7911 5.7 49.7346 5.63942C50.678 5.57885 51.614 5.84091 52.3888 6.38256L52.8055 6.71589L95.8346 45.8326H83.3346V83.3326C83.3345 84.3531 82.9598 85.3381 82.2816 86.1008C81.6035 86.8634 80.669 87.3506 79.6555 87.4701L79.168 87.4992H52.0846L62.5013 70.8326L47.918 58.3326L64.5846 45.8326L54.168 37.4992L56.2513 24.9992L43.7513 37.4992L54.168 45.8326L33.3346 58.3326L48.9596 72.9159L35.418 87.4992H20.8346C19.8141 87.4991 18.8291 87.1244 18.0664 86.4462C17.3038 85.7681 16.8165 84.8336 16.6971 83.8201L16.668 83.3326V45.8326H4.16797L47.1971 6.71589Z" fill="black"/>
</svg>
