<svg width="100" height="100" viewBox="0 0 100 100" fill="none" xmlns="http://www.w3.org/2000/svg">
<path d="M8.33203 91.6673V83.334C10.9709 83.334 12.9334 82.6395 14.2195 81.2507C15.5056 79.8618 18.1959 79.1673 22.2904 79.1673C26.3876 79.1673 29.0612 79.8618 30.3112 81.2507C31.5612 82.6395 33.5056 83.334 36.1445 83.334C38.7834 83.334 40.7279 82.6395 41.9779 81.2507C43.2279 79.8618 45.9015 79.1673 49.9987 79.1673C53.957 79.1673 56.6487 79.8618 58.0737 81.2507C59.4987 82.6395 61.4598 83.334 63.957 83.334C66.5959 83.334 68.5404 82.6395 69.7904 81.2507C71.0404 79.8618 73.714 79.1673 77.8112 79.1673C81.9084 79.1673 84.582 79.8618 85.832 81.2507C87.082 82.6395 89.0265 83.334 91.6654 83.334V91.6673C87.6376 91.6673 84.964 90.9729 83.6445 89.584C82.3251 88.1951 80.3806 87.5007 77.8112 87.5007C75.2418 87.5007 73.2973 88.1951 71.9779 89.584C70.6584 90.9729 67.9848 91.6673 63.957 91.6673C59.9293 91.6673 57.239 90.9729 55.8862 89.584C54.5334 88.1951 52.5709 87.5007 49.9987 87.5007C47.3598 87.5007 45.4154 88.1951 44.1654 89.584C42.9154 90.9729 40.2418 91.6673 36.1445 91.6673C32.0473 91.6673 29.3737 90.9729 28.1237 89.584C26.8737 88.1951 24.9293 87.5007 22.2904 87.5007C19.7209 87.5007 17.7765 88.1951 16.457 89.584C15.1376 90.9729 12.4293 91.6673 8.33203 91.6673ZM8.33203 72.9173V64.584C10.9709 64.584 12.9154 63.8895 14.1654 62.5007C15.4154 61.1118 18.089 60.4173 22.1862 60.4173C22.6029 60.4173 23.0195 60.4354 23.4362 60.4715C23.8529 60.5076 24.2348 60.559 24.582 60.6257L20.6237 46.0423L14.8945 53.5423L8.33203 48.334L40.7279 8.33398L88.7487 26.6673L85.7279 34.4798L76.9779 30.9382L85.4154 62.2923C86.3876 62.8479 87.3418 63.3687 88.2779 63.8548C89.214 64.3409 90.3431 64.584 91.6654 64.584V72.9173C87.707 72.8479 85.0334 72.1354 83.6445 70.7798C82.2556 69.4243 80.3112 68.7479 77.8112 68.7507C75.1723 68.7507 73.2279 69.4451 71.9779 70.834C70.7279 72.2229 68.0543 72.9173 63.957 72.9173C59.9987 72.9173 57.3084 72.2229 55.8862 70.834C54.464 69.4451 52.5015 68.7507 49.9987 68.7507C47.3598 68.7507 45.4154 69.4451 44.1654 70.834C42.9154 72.2229 40.2418 72.9173 36.1445 72.9173C32.1862 72.9173 29.5126 72.2229 28.1237 70.834C26.7348 69.4451 24.7904 68.7507 22.2904 68.7507C19.8598 68.7507 17.9154 69.4451 16.457 70.834C14.9987 72.2229 12.2904 72.9173 8.33203 72.9173ZM64.3737 64.4798L58.5404 42.3965L42.3945 46.6673L46.2487 60.834C46.8043 60.6951 47.3779 60.5909 47.9695 60.5215C48.5612 60.452 49.2376 60.4173 49.9987 60.4173C53.957 60.4173 56.7876 61.1812 58.4904 62.709C60.1931 64.2368 62.1543 64.827 64.3737 64.4798Z" fill="black"/>
</svg>
