<svg width="70" height="71" viewBox="0 0 70 71" fill="none" xmlns="http://www.w3.org/2000/svg">
<path d="M69.9683 39.2652L68.7143 20.9809C68.6268 19.7999 68.0874 18.7209 67.1979 17.9335C66.3085 17.1608 65.1566 16.7816 63.9755 16.8546C61.6426 17.0295 59.8492 18.9833 59.8638 21.3163L60.0096 36.2324L53.5503 44.4997C52.5151 45.8266 50.8091 46.3515 49.2636 45.9578L56.2915 36.8302C57.5309 35.2263 57.3121 32.908 55.8249 31.552C55.023 30.8229 53.9877 30.473 52.9233 30.5459C51.8444 30.6188 50.8674 31.1146 50.1822 31.9457L39.5674 44.733C37.8177 46.8472 36.8699 49.5155 36.8991 52.2567L37.0595 69.2287C37.0595 69.8994 37.6135 70.4535 38.2988 70.4535L55.9707 70.4826C56.3207 70.4826 56.6414 70.3368 56.8747 70.0889C57.108 69.8265 57.2247 69.4911 57.1955 69.1412L56.4811 60.8302L68.2186 45.2433C69.5017 43.5374 70.1287 41.4232 69.9829 39.2798L69.9683 39.2652ZM66.221 43.7415L54.2065 59.7074C54.0169 59.9553 53.9294 60.2469 53.9586 60.5531L54.6001 67.9893H39.4945L39.3341 52.2129C39.3195 50.055 40.0631 47.9553 41.4337 46.2931L52.0485 33.5058C52.2964 33.1996 52.6609 33.01 53.0546 32.9809C53.4482 32.9517 53.8273 33.083 54.1335 33.36C54.6876 33.8557 54.7605 34.716 54.3085 35.3138L46.3329 45.6661C46.1287 45.9432 46.0412 46.2785 46.0996 46.6285C46.1579 46.9638 46.3474 47.27 46.639 47.4596C49.4969 49.3551 53.3754 48.7135 55.4896 46.0161L62.2113 37.3989C62.3863 37.1801 62.4737 36.9031 62.4737 36.6261L62.328 21.2871C62.328 20.2519 63.1153 19.3916 64.1506 19.3041C64.6755 19.2604 65.1858 19.4353 65.5794 19.7853C65.9731 20.1352 66.221 20.6018 66.2501 21.1267L67.5041 39.411C67.6062 40.9566 67.1542 42.4875 66.221 43.7123V43.7415Z" fill="black"/>
<path d="M54.2046 59.7087C54.0151 59.9566 53.9276 60.2482 53.9568 60.5544L54.5983 67.9906H39.4927L39.3322 52.2142C39.3177 50.0563 40.0613 47.9566 41.4319 46.2944L52.0467 33.5071C52.2945 33.2009 52.6591 33.0113 53.0528 32.9822C53.4464 32.953 53.8255 33.0843 54.1317 33.3613C54.6858 33.857 54.7587 34.7173 54.3067 35.3151L46.331 45.6674C46.1269 45.9445 46.0394 46.2798 46.0977 46.6298C46.1561 46.9651 46.3456 47.2713 46.6372 47.4609C49.4951 49.3564 53.3735 48.7148 55.4878 46.0174L62.2095 37.4002C62.3844 37.1814 62.4719 36.9044 62.4719 36.6274L62.3261 21.2884C62.3261 20.2532 63.1135 19.3929 64.1487 19.3054C64.6737 19.2617 65.1839 19.4366 65.5776 19.7866C65.9713 20.1365 66.2192 20.6031 66.2483 21.128L67.5023 39.4123C67.6044 40.9579 67.1524 42.4888 66.2192 43.7136L54.2046 59.6796V59.7087Z" fill="black"/>
<path d="M30.4216 44.7189L19.8068 31.9316C19.1216 31.1005 18.1446 30.6047 17.0657 30.5318C15.9867 30.4589 14.9514 30.8089 14.1641 31.5379C12.6622 32.8939 12.4581 35.2122 13.6975 36.8161L20.7254 45.9437C19.1798 46.3374 17.4593 45.8125 16.4387 44.4856L9.97938 36.2183L10.1252 21.3022C10.1544 18.9693 8.34633 17.0154 6.01341 16.8405C4.83237 16.753 3.6805 17.1321 2.79107 17.9194C1.90164 18.6922 1.36214 19.7858 1.27466 20.9668L0.0207325 39.2511C-0.125075 41.3799 0.501885 43.4941 1.78499 45.2146L13.5225 60.8015L12.7935 69.1125C12.7643 69.4625 12.881 69.7978 13.1143 70.0603C13.3476 70.3082 13.6829 70.454 14.0183 70.454L31.6902 70.4248C32.3609 70.4248 32.915 69.8853 32.9295 69.2L33.0899 52.228C33.1191 49.4868 32.1713 46.8185 30.4216 44.7043V44.7189ZM30.4799 67.9752H15.3743L16.0158 60.5536C16.045 60.2474 15.9575 59.9412 15.7679 59.7079L3.75341 43.742C2.82024 42.5026 2.36823 40.9716 2.47029 39.4407L3.72426 21.1564C3.75342 20.6315 4.00128 20.1503 4.39496 19.8149C4.75948 19.5087 5.21149 19.3338 5.67808 19.3338C5.72182 19.3338 5.78015 19.3338 5.82389 19.3338C6.85913 19.4067 7.64649 20.2815 7.64649 21.3168L7.50067 36.6557C7.50067 36.9328 7.58815 37.2098 7.76312 37.4285L14.4848 46.0458C16.5845 48.7432 20.4775 49.3702 23.3354 47.4892C23.627 47.2997 23.8165 46.9935 23.8749 46.6581C23.9332 46.3228 23.8457 45.9728 23.6416 45.6958L15.6659 35.3435C15.2139 34.7457 15.2868 33.9 15.8409 33.3896C16.1325 33.1272 16.5116 32.996 16.9198 33.0105C17.3135 33.0397 17.678 33.2293 17.9259 33.5355L28.5407 46.3228C29.9113 47.985 30.6695 50.0846 30.6403 52.2426L30.4799 68.0044V67.9752Z" fill="black"/>
<path d="M30.6256 52.2136L30.4653 67.9754H15.3596L16.0011 60.5538C16.0303 60.2476 15.9428 59.9414 15.7533 59.7081L3.73868 43.7422C2.80551 42.5028 2.3535 40.9719 2.45556 39.4409L3.70953 21.1566C3.7387 20.6317 3.98656 20.1505 4.38024 19.8152C4.74476 19.509 5.19677 19.334 5.66335 19.334C5.70709 19.334 5.76543 19.334 5.80917 19.334C6.8444 19.4069 7.63176 20.2817 7.63176 21.317L7.48595 36.6559C7.48595 36.933 7.57342 37.21 7.74839 37.4287L14.4701 46.046C16.5698 48.7434 20.4629 49.3704 23.3207 47.4894C23.6123 47.2999 23.8018 46.9937 23.8602 46.6584C23.9185 46.323 23.831 45.9731 23.6269 45.696L15.6512 35.3437C15.1992 34.7459 15.2721 33.9002 15.8261 33.3898C16.1178 33.1274 16.4969 32.9962 16.9051 33.0108C17.2988 33.0399 17.6633 33.2295 17.9112 33.5357L28.526 46.323C29.8966 47.9852 30.6548 50.0848 30.6256 52.2428V52.2136Z" fill="black"/>
<path d="M55.1078 4.06803C52.4833 1.44349 48.9985 0 45.2804 0C41.5623 0 38.0775 1.44349 35.453 4.06803L34.9864 4.53462L34.5198 4.06803C31.8953 1.44349 28.4104 0 24.6923 0C20.9742 0 17.4894 1.44349 14.8649 4.06803C9.44086 9.49207 9.44086 18.2989 14.8649 23.7229L34.1115 42.9695C34.3594 43.2028 34.6656 43.334 34.9864 43.334C35.3072 43.334 35.6133 43.2174 35.8612 42.9695L55.1078 23.7229C57.7324 21.0984 59.1759 17.6136 59.1759 13.8955C59.1759 10.1774 57.7324 6.69256 55.1078 4.06803ZM53.3581 21.9732L34.9864 40.345L16.6146 21.9732C12.1675 17.5115 12.1675 10.2649 16.6146 5.81774C18.7726 3.65978 21.645 2.47873 24.6923 2.47873C27.7397 2.47873 30.6121 3.65977 32.7701 5.83231L34.1115 7.17374C34.3448 7.40703 34.651 7.53826 34.9864 7.53826C35.3218 7.53826 35.6279 7.40703 35.8612 7.17374L37.2027 5.83231C39.3606 3.67435 42.233 2.47873 45.2804 2.47873C48.3278 2.47873 51.2002 3.65977 53.3581 5.83231C55.5161 7.99026 56.7117 10.8627 56.7117 13.91C56.7117 16.9574 55.5161 19.8298 53.3581 21.9878V21.9732Z" fill="black"/>
<path d="M56.7137 13.8953C56.7137 16.9426 55.5181 19.815 53.3601 21.973L34.9884 40.3448L16.6166 21.973C12.1695 17.5113 12.1695 10.2647 16.6166 5.81752C18.7746 3.65957 21.6469 2.47852 24.6943 2.47852C27.7417 2.47852 30.6141 3.65956 32.7721 5.8321L34.1135 7.17353C34.3468 7.40682 34.653 7.53804 34.9884 7.53804C35.3237 7.53804 35.6299 7.40682 35.8632 7.17353L37.2046 5.8321C39.3626 3.67414 42.235 2.47852 45.2824 2.47852C48.3298 2.47852 51.2022 3.65956 53.3601 5.8321C55.5181 7.99005 56.7137 10.8625 56.7137 13.9098V13.8953Z" fill="black"/>
</svg>
