<svg width="70" height="70" viewBox="0 0 70 70" fill="none" xmlns="http://www.w3.org/2000/svg">
<path d="M36.75 0C52.5 0 52.85 12.488 44.548 16.618C43.008 17.528 41.692 18.788 40.712 20.286C39.732 21.784 39.102 23.492 38.878 25.27C40.558 25.97 42.028 27.062 43.19 28.462C56 21.462 70 24.22 70 36.75C70 52.5 57.47 52.85 53.368 44.548C52.43 43.008 51.156 41.692 49.644 40.712C48.132 39.732 46.41 39.102 44.618 38.878C43.918 40.544 42.826 42.028 41.44 43.19C48.44 56.112 45.64 70 33.11 70C17.5 70 17.108 57.47 25.41 53.34C26.922 52.416 28.224 51.17 29.204 49.686C30.184 48.202 30.828 46.522 31.08 44.772C29.358 44.1 27.86 42.994 26.712 41.552C13.79 48.482 0 45.752 0 33.264C0 17.514 12.39 17.122 16.52 25.424C17.444 26.964 18.704 28.266 20.216 29.232C21.714 30.212 23.422 30.828 25.2 31.052C25.872 29.372 26.992 27.888 28.42 26.782C21.462 14 24.22 0 36.68 0H36.75Z" fill="black"/>
</svg>
