<svg width="70" height="79" viewBox="0 0 70 79" fill="none" xmlns="http://www.w3.org/2000/svg">
<path d="M52.1835 18.9277C42.9063 18.9277 36.8158 23.8716 34.999 29.6494C33.1823 23.8567 27.0918 18.9277 17.8146 18.9277C8.01617 18.9277 -0.844097 27.9071 0.0642667 40.1924C1.33002 57.0492 30.1445 78.7755 34.999 78.7755C39.8536 78.7755 68.668 57.0343 69.9338 40.1924C70.857 27.9071 61.9819 18.9277 52.1835 18.9277ZM49.1606 44.9873L23.7562 66.7285L32.2144 51.3757H25.29L32.5569 33.4764H49.3988L40.6726 44.9873H49.1755H49.1606Z" fill="black"/>
<path d="M12.8998 14.7567H14.9995C15.1484 14.7567 15.2377 14.6971 15.2824 14.5333L16.2503 11.6742L16.5333 10.8701H21.5218L21.8048 11.6742L22.7876 14.5333C22.8323 14.6822 22.9216 14.7567 23.0705 14.7567H25.1851C25.334 14.7567 25.3786 14.6673 25.334 14.5333L20.3603 0.252656C20.3156 0.118635 20.2263 0.0292969 20.0774 0.0292969H18.082C17.933 0.0292969 17.8437 0.118635 17.799 0.252656L12.7509 14.5333C12.7062 14.6673 12.7509 14.7567 12.8998 14.7567ZM19.0052 3.69252H19.0648L20.9113 9.09804H17.1438L19.0052 3.69252Z" fill="black"/>
<path d="M30.6655 14.7571H39.8832C40.0172 14.7571 40.1065 14.6678 40.1065 14.5338V12.6724C40.1065 12.5384 40.0172 12.4639 39.8832 12.4639H33.1374C33.0481 12.4639 33.0034 12.4193 33.0034 12.3299V8.60711C33.0034 8.51777 33.0481 8.4731 33.1374 8.4731H37.7984C37.9324 8.4731 38.0069 8.38372 38.0069 8.24969V6.38829C38.0069 6.25427 37.9175 6.16494 37.7984 6.16494H33.1374C33.0481 6.16494 33.0034 6.12027 33.0034 6.03092V2.44213C33.0034 2.35279 33.0481 2.30812 33.1374 2.30812H39.8832C40.0172 2.30812 40.1065 2.21878 40.1065 2.08476V0.223359C40.1065 0.0893381 40.0172 0 39.8832 0H30.6655C30.5315 0 30.457 0.0893381 30.457 0.223359V14.504C30.457 14.638 30.5464 14.7274 30.6655 14.7274V14.7571Z" fill="black"/>
<path d="M46.7195 14.7567H51.9761C54.5076 14.7567 56.1903 13.625 56.8902 11.4955C57.1284 10.7659 57.2624 9.96175 57.2624 7.40046C57.2624 4.83917 57.1284 4.04994 56.8902 3.30538C56.2052 1.16105 54.5076 0.0292969 51.9761 0.0292969H46.7195C46.5854 0.0292969 46.4961 0.118635 46.4961 0.252656V14.5333C46.4961 14.6673 46.5854 14.7567 46.7195 14.7567ZM49.0574 2.47143C49.0574 2.38208 49.1021 2.33742 49.1914 2.33742H51.3804C53.0035 2.33742 54.0013 2.8735 54.4331 4.19882C54.582 4.61577 54.7012 5.25613 54.7012 7.40046C54.7012 9.5448 54.5969 10.2 54.4331 10.6021C54.0013 11.9274 53.0035 12.4635 51.3804 12.4635H49.1914C49.1021 12.4635 49.0574 12.4188 49.0574 12.3294V2.47143Z" fill="black"/>
</svg>
