<svg width="180" height="180" viewBox="0 0 180 180" fill="none" xmlns="http://www.w3.org/2000/svg">
<circle cx="90" cy="90" r="90" fill="#0053B9"/>
<g clip-path="url(#clip0_2000_8)">
<path d="M71.0014 130.29C64.0109 126.998 57.9965 121.944 53.5484 115.626C49.1002 109.308 46.3711 101.941 45.6289 94.25H39.2539C41.4214 120.43 63.3089 141 90.0414 141L92.8464 140.872L76.6539 124.68L71.0014 130.29ZM74.7839 102.58C73.9764 102.58 73.2114 102.452 72.5739 102.24C71.9391 102.029 71.3587 101.681 70.8739 101.22C70.4064 100.795 70.0239 100.285 69.7689 99.6475C69.5139 99.0525 69.3864 98.3725 69.3864 97.65H63.8614C63.8614 99.18 64.1589 100.54 64.7539 101.688C65.3489 102.835 66.1564 103.812 67.1339 104.62C68.1539 105.385 69.3014 105.98 70.6189 106.363C71.8939 106.787 73.2539 107 74.6989 107C76.2714 107 77.7589 106.787 79.0764 106.363C80.4364 105.938 81.6264 105.3 82.6039 104.493C83.5814 103.685 84.3889 102.665 84.9414 101.432C85.4939 100.2 85.7914 98.84 85.7914 97.31C85.7914 96.5025 85.7064 95.695 85.4939 94.93C85.2923 94.1577 84.9618 93.4249 84.5164 92.7625C84.0914 92.0825 83.4964 91.4875 82.8164 90.935C82.0939 90.3825 81.2439 89.9575 80.2239 89.6175C81.7601 88.933 83.0714 87.828 84.0064 86.43C84.4314 85.7925 84.7289 85.155 84.9414 84.475C85.1539 83.795 85.2389 83.115 85.2389 82.435C85.2389 80.905 84.9839 79.545 84.4739 78.355C83.9639 77.165 83.2414 76.1875 82.3064 75.4225C81.4564 74.615 80.3089 74.02 79.0339 73.595C77.7164 73.2125 76.2714 73 74.6989 73C73.1689 73 71.7664 73.2125 70.4489 73.68C69.1739 74.1475 68.0264 74.785 67.0914 75.5925C66.1989 76.4 65.4764 77.335 64.9239 78.44C64.4139 79.545 64.1589 80.735 64.1589 82.0525H69.6839C69.6839 81.33 69.8114 80.6925 70.0664 80.14C70.3214 79.5875 70.6614 79.0775 71.1289 78.695C71.5964 78.3125 72.1064 77.9725 72.7439 77.76C73.3814 77.5475 74.0189 77.42 74.7839 77.42C76.4839 77.42 77.7589 77.845 78.5664 78.7375C79.3739 79.5875 79.7989 80.82 79.7989 82.3925C79.7989 83.1575 79.6714 83.8375 79.4589 84.475C79.2464 85.1125 78.8639 85.6225 78.3964 86.0475C77.9289 86.4725 77.3339 86.8125 76.6539 87.0675C75.9739 87.3225 75.1239 87.45 74.1889 87.45H70.9164V91.8275H74.1889C75.1239 91.8275 75.9739 91.9125 76.7389 92.125C77.5039 92.3375 78.1414 92.6775 78.6514 93.1025C79.1614 93.57 79.5864 94.1225 79.8839 94.8025C80.1814 95.4825 80.3089 96.29 80.3089 97.225C80.3089 98.9675 79.7989 100.285 78.8214 101.178C77.8439 102.155 76.4839 102.58 74.7839 102.58ZM111.121 77.42C109.761 76.0175 108.146 74.9125 106.276 74.1475C104.406 73.3825 102.324 73 100.029 73H89.9989V107H99.7739C102.111 107 104.279 106.618 106.191 105.853C108.104 105.088 109.761 104.025 111.121 102.623C112.481 101.22 113.544 99.52 114.266 97.565C114.989 95.5675 115.371 93.3575 115.371 90.8925V89.1925C115.371 86.7275 114.989 84.5175 114.266 82.52C113.544 80.5225 112.481 78.8225 111.121 77.42ZM109.464 90.85C109.464 92.635 109.251 94.2075 108.869 95.6525C108.444 97.055 107.849 98.2875 107.041 99.265C106.234 100.243 105.214 101.007 104.024 101.518C102.791 102.028 101.389 102.283 99.8164 102.283H95.9489V77.76H100.071C103.131 77.76 105.469 78.7375 107.041 80.6925C108.656 82.6475 109.464 85.4525 109.464 89.15V90.85ZM90.0414 39L87.2364 39.1275L103.429 55.32L109.081 49.6675C122.979 56.255 132.924 69.7275 134.411 85.7075H140.786C138.661 59.57 116.774 39 90.0414 39Z" fill="white"/>
</g>
<defs>
<clipPath id="clip0_2000_8">
<rect width="102" height="102" fill="white" transform="translate(39 39)"/>
</clipPath>
</defs>
</svg>
