<svg width="180" height="180" viewBox="0 0 180 180" fill="none" xmlns="http://www.w3.org/2000/svg">
<circle cx="90" cy="90" r="90" fill="#0053B9"/>
<path d="M124.251 42.4785H57.4008C55.0933 42.4785 53.2227 44.3286 53.2227 46.6107V133.388C53.2227 135.67 55.0933 137.52 57.4008 137.52H124.251C126.559 137.52 128.429 135.67 128.429 133.388V46.6107C128.429 44.3286 126.559 42.4785 124.251 42.4785Z" stroke="white" stroke-width="4" stroke-miterlimit="10" stroke-linecap="round"/>
<path d="M53.2227 116.859H128.429" stroke="white" stroke-width="4" stroke-miterlimit="10" stroke-linecap="round"/>
<path d="M89.9986 130.908C92.509 130.908 94.544 129.428 94.544 127.603C94.544 125.777 92.509 124.297 89.9986 124.297C87.4882 124.297 85.4531 125.777 85.4531 127.603C85.4531 129.428 87.4882 130.908 89.9986 130.908Z" fill="white"/>
<path d="M53.2227 53.2227H128.429" stroke="white" stroke-width="4" stroke-miterlimit="10" stroke-linecap="round"/>
<path d="M87.1367 73.7937C87.1367 71.7689 88.7845 70.1211 90.8093 70.1211C92.834 70.1211 94.4818 71.7689 94.4818 73.7937C94.4818 75.8184 92.834 77.4663 90.8093 77.4663C88.7845 77.4663 87.1367 75.8184 87.1367 73.7937Z" fill="white"/>
<path d="M57.3555 99.769V79.4567L76.9569 70.7115L67.1562 69.4622L88.9117 61.4277L81.0711 60.2538L100.673 56.5273L90.6887 60.1999L98.0016 60.3938L83.8282 67.1897L100.673 67.9113L95.266 72.1547C95.266 72.1547 93.4997 69.4083 91.8088 69.2144C90.441 69.0529 88.2116 69.1498 87.0377 70.9807C85.8637 72.8116 85.9284 74.7718 86.3807 76.5381H80.1126C80.1126 76.5381 78.0555 76.915 77.2046 78.1536C76.3538 79.3921 74.8783 81.7292 74.1029 83.7217C73.8121 84.454 74.1029 86.7911 74.9537 87.0496L57.3662 99.769H57.3555Z" fill="white"/>
<path d="M86.6794 77.4648C86.6794 77.4648 81.1974 77.5833 80.1527 77.7772C79.108 77.971 75.5108 83.9161 75.5108 83.9161C75.5108 83.9161 74.9831 85.2193 75.5108 85.5531C76.0386 85.8762 76.814 86.2747 76.814 86.2747C76.814 86.2747 77.7941 86.5978 78.1172 86.2747C78.4403 85.9516 81.3159 81.1159 81.3159 81.1159H84.5146L81.639 86.4255C81.639 86.4255 80.9498 87.1902 80.939 89.8719C80.9282 92.5537 80.939 94.8369 80.939 94.8369H74.0677C74.0677 94.8369 70.4059 94.9015 69.4258 98.628H82.9422C82.9422 98.628 84.9885 99.0803 85.0424 96.7971C85.0962 94.5138 85.4947 91.4443 85.4947 91.4443L91.5044 102.419C91.5044 102.419 92.549 105.295 97.0617 104.056L89.2211 88.6441L91.4398 83.5499C91.4398 83.5499 93.5291 86.5547 94.2507 86.8779C94.9723 87.201 99.8511 87.6641 100.702 87.2009C101.564 86.7486 102.285 86.1778 102.016 84.9931C101.757 83.8084 100.702 83.6145 100.702 83.6145L96.4047 83.4853C96.4047 83.4853 92.6783 78.5526 91.569 78.1757C90.4597 77.7987 86.6686 77.4864 86.6686 77.4864L86.6794 77.4648Z" fill="white"/>
<path d="M88.3932 100.307C88.3932 100.307 90.4179 104.486 91.0103 104.884C91.6026 105.272 92.1196 105.606 95.3183 105.606H99.6263L96.2984 99.4022C96.2984 99.4022 101.651 98.6159 105.97 100.124C110.278 101.621 113.283 103.322 112.701 105.606C112.109 107.889 110.289 109.784 106.099 110.765C101.92 111.745 95.9753 112.466 90.8811 111.292C85.7868 110.118 82.1897 108.761 81.8666 105.552C81.5434 102.342 88.3932 100.318 88.3932 100.318V100.307Z" fill="white"/>
</svg>
