<svg width="180" height="180" viewBox="0 0 180 180" fill="none" xmlns="http://www.w3.org/2000/svg">
<circle cx="90" cy="90" r="90" fill="#0053B9"/>
<path d="M138.326 102.267C138.885 102.267 139.421 102.489 139.816 102.884C140.211 103.279 140.433 103.815 140.433 104.374C140.433 104.933 140.211 105.469 139.816 105.864C139.421 106.259 138.885 106.481 138.326 106.481V127.556C138.885 127.556 139.421 127.778 139.816 128.173C140.211 128.568 140.433 129.104 140.433 129.663C140.433 130.222 140.211 130.758 139.816 131.153C139.421 131.548 138.885 131.77 138.326 131.77H100.393C99.8336 131.77 99.2976 131.548 98.9024 131.153C98.5072 130.758 98.2852 130.222 98.2852 129.663C98.2852 129.104 98.5072 128.568 98.9024 128.173C99.2976 127.778 99.8336 127.556 100.393 127.556V106.481C99.8336 106.481 99.2976 106.259 98.9024 105.864C98.5072 105.469 98.2852 104.933 98.2852 104.374C98.2852 103.815 98.5072 103.279 98.9024 102.884C99.2976 102.489 99.8336 102.267 100.393 102.267H138.326ZM108.822 110.696C108.263 110.696 107.727 110.918 107.332 111.313C106.937 111.709 106.715 112.245 106.715 112.804V127.556H110.93V112.804C110.93 112.245 110.708 111.709 110.312 111.313C109.917 110.918 109.381 110.696 108.822 110.696ZM119.359 110.696C118.8 110.696 118.264 110.918 117.869 111.313C117.474 111.709 117.252 112.245 117.252 112.804V127.556H121.467V112.804C121.467 112.245 121.245 111.709 120.849 111.313C120.454 110.918 119.918 110.696 119.359 110.696ZM129.896 110.696C129.337 110.696 128.801 110.918 128.406 111.313C128.011 111.709 127.789 112.245 127.789 112.804V127.556H132.004V112.804C132.004 112.245 131.782 111.709 131.386 111.313C130.991 110.918 130.455 110.696 129.896 110.696ZM132.004 95.9443C132.563 95.9443 133.099 96.1664 133.494 96.5616C133.889 96.9568 134.111 97.4928 134.111 98.0517C134.111 98.6107 133.889 99.1467 133.494 99.5419C133.099 99.9371 132.563 100.159 132.004 100.159H106.715C106.156 100.159 105.62 99.9371 105.225 99.5419C104.829 99.1467 104.607 98.6107 104.607 98.0517C104.607 97.4928 104.829 96.9568 105.225 96.5616C105.62 96.1664 106.156 95.9443 106.715 95.9443H132.004Z" fill="white"/>
<path d="M59.3571 137.214V113.195L69.4396 123.239L74.9286 117.75L55.4643 98.2857L36 117.75L41.4889 123.239L51.5714 113.195V137.214C51.5714 141.508 55.0633 145 59.3571 145H94.3929V137.214H59.3571ZM139.511 57.7611L129.429 67.8046V43.7857C129.429 39.4958 125.937 36 121.643 36H86.6071V43.7857H121.643V67.8046L111.56 57.7611L106.071 63.25L125.536 82.7143L145 63.25L139.511 57.7611ZM55.4643 86.6071C66.5589 86.6071 74.9286 81.5854 74.9286 74.9286V47.6786C74.9286 41.0218 66.5589 36 55.4643 36C44.3696 36 36 41.0218 36 47.6786V74.9286C36 81.5854 44.3696 86.6071 55.4643 86.6071ZM55.4643 43.7857C63.0009 43.7857 67.1429 46.7092 67.1429 47.6786C67.1429 48.6479 63.0009 51.5714 55.4643 51.5714C47.9277 51.5714 43.7857 48.6479 43.7857 47.6786C43.7857 46.7092 47.9277 43.7857 55.4643 43.7857ZM43.7857 57.0993C47.0012 58.5124 50.9875 59.3571 55.4643 59.3571C59.9411 59.3571 63.9274 58.5124 67.1429 57.0993V74.9286C67.1429 75.8979 63.0009 78.8214 55.4643 78.8214C47.9277 78.8214 43.7857 75.8979 43.7857 74.9286V57.0993Z" fill="white"/>
</svg>
