<svg width="180" height="180" viewBox="0 0 180 180" fill="none" xmlns="http://www.w3.org/2000/svg">
<circle cx="90" cy="90" r="90" fill="#0053B9"/>
<path d="M57.5 51C53.9445 51 51 53.9445 51 57.5C51 61.0555 53.9445 64 57.5 64C61.0555 64 64 61.0555 64 57.5C64 53.9445 61.0555 51 57.5 51ZM70.5 54.25C68.7125 54.25 67.25 55.7125 67.25 57.5C67.25 59.2875 68.7125 60.75 70.5 60.75C72.2875 60.75 73.75 59.2875 73.75 57.5C73.75 55.7125 72.2875 54.25 70.5 54.25ZM80.25 54.25C78.4625 54.25 77 55.7125 77 57.5C77 59.2875 78.4625 60.75 80.25 60.75C82.0375 60.75 83.5 59.2875 83.5 57.5C83.5 55.7125 82.0375 54.25 80.25 54.25ZM90 54.25C88.2125 54.25 86.75 55.7125 86.75 57.5C86.75 59.2875 88.2125 60.75 90 60.75C91.7875 60.75 93.25 59.2875 93.25 57.5C93.25 55.7125 91.7875 54.25 90 54.25ZM99.75 54.25C97.9625 54.25 96.5 55.7125 96.5 57.5C96.5 59.2875 97.9625 60.75 99.75 60.75C101.537 60.75 103 59.2875 103 57.5C103 55.7125 101.537 54.25 99.75 54.25ZM109.5 54.25C107.713 54.25 106.25 55.7125 106.25 57.5C106.25 59.2875 107.713 60.75 109.5 60.75C111.287 60.75 112.75 59.2875 112.75 57.5C112.75 55.7125 111.287 54.25 109.5 54.25ZM119.25 54.25C117.463 54.25 116 55.7125 116 57.5C116 59.2875 117.463 60.75 119.25 60.75C121.037 60.75 122.5 59.2875 122.5 57.5C122.5 55.7125 121.037 54.25 119.25 54.25ZM125.75 60.75C123.963 60.75 122.5 62.2125 122.5 64C122.5 65.7875 123.963 67.25 125.75 67.25C127.537 67.25 129 65.7875 129 64C129 62.2125 127.537 60.75 125.75 60.75ZM90 70.5C84.631 70.5 80.25 74.881 80.25 80.25C80.25 84.3125 85.4922 94.849 87.1075 97.9853L90 103.608L92.8925 97.9853C94.511 94.849 99.75 84.3125 99.75 80.25C99.75 74.881 95.369 70.5 90 70.5ZM125.75 70.5C123.963 70.5 122.5 71.9625 122.5 73.75C122.5 75.5375 123.963 77 125.75 77C127.537 77 129 75.5375 129 73.75C129 71.9625 127.537 70.5 125.75 70.5ZM90 77C91.7875 77 93.25 78.4625 93.25 80.25C93.25 82.0375 91.7875 83.5 90 83.5C88.2125 83.5 86.75 82.0375 86.75 80.25C86.75 78.4625 88.2125 77 90 77ZM125.75 80.25C123.963 80.25 122.5 81.7125 122.5 83.5C122.5 85.2875 123.963 86.75 125.75 86.75C127.537 86.75 129 85.2875 129 83.5C129 81.7125 127.537 80.25 125.75 80.25ZM125.75 90C123.963 90 122.5 91.4625 122.5 93.25C122.5 95.0375 123.963 96.5 125.75 96.5C127.537 96.5 129 95.0375 129 93.25C129 91.4625 127.537 90 125.75 90ZM60.75 96.5C58.9625 96.5 57.5 97.9625 57.5 99.75C57.5 101.537 58.9625 103 60.75 103C62.5375 103 64 101.537 64 99.75C64 97.9625 62.5375 96.5 60.75 96.5ZM70.5 96.5C68.7125 96.5 67.25 97.9625 67.25 99.75C67.25 101.537 68.7125 103 70.5 103C72.2875 103 73.75 101.537 73.75 99.75C73.75 97.9625 72.2875 96.5 70.5 96.5ZM80.25 96.5C78.4625 96.5 77 97.9625 77 99.75C77 101.537 78.4625 103 80.25 103C82.0375 103 83.5 101.537 83.5 99.75C83.5 97.9625 82.0375 96.5 80.25 96.5ZM99.75 96.5C97.9625 96.5 96.5 97.9625 96.5 99.75C96.5 101.537 97.9625 103 99.75 103C101.537 103 103 101.537 103 99.75C103 97.9625 101.537 96.5 99.75 96.5ZM109.5 96.5C107.713 96.5 106.25 97.9625 106.25 99.75C106.25 101.537 107.713 103 109.5 103C111.287 103 112.75 101.537 112.75 99.75C112.75 97.9625 111.287 96.5 109.5 96.5ZM119.25 96.5C117.463 96.5 116 97.9625 116 99.75C116 101.537 117.463 103 119.25 103C121.037 103 122.5 101.537 122.5 99.75C122.5 97.9625 121.037 96.5 119.25 96.5ZM54.25 103C52.4625 103 51 104.463 51 106.25C51 108.037 52.4625 109.5 54.25 109.5C56.0375 109.5 57.5 108.037 57.5 106.25C57.5 104.463 56.0375 103 54.25 103ZM54.25 112.75C52.4625 112.75 51 114.213 51 116C51 117.787 52.4625 119.25 54.25 119.25C56.0375 119.25 57.5 117.787 57.5 116C57.5 114.213 56.0375 112.75 54.25 112.75ZM122.5 116C118.945 116 116 118.945 116 122.5C116 126.055 118.945 129 122.5 129C126.055 129 129 126.055 129 122.5C129 118.945 126.055 116 122.5 116ZM60.75 119.25C58.9625 119.25 57.5 120.713 57.5 122.5C57.5 124.287 58.9625 125.75 60.75 125.75C62.5375 125.75 64 124.287 64 122.5C64 120.713 62.5375 119.25 60.75 119.25ZM70.5 119.25C68.7125 119.25 67.25 120.713 67.25 122.5C67.25 124.287 68.7125 125.75 70.5 125.75C72.2875 125.75 73.75 124.287 73.75 122.5C73.75 120.713 72.2875 119.25 70.5 119.25ZM80.25 119.25C78.4625 119.25 77 120.713 77 122.5C77 124.287 78.4625 125.75 80.25 125.75C82.0375 125.75 83.5 124.287 83.5 122.5C83.5 120.713 82.0375 119.25 80.25 119.25ZM90 119.25C88.2125 119.25 86.75 120.713 86.75 122.5C86.75 124.287 88.2125 125.75 90 125.75C91.7875 125.75 93.25 124.287 93.25 122.5C93.25 120.713 91.7875 119.25 90 119.25ZM99.75 119.25C97.9625 119.25 96.5 120.713 96.5 122.5C96.5 124.287 97.9625 125.75 99.75 125.75C101.537 125.75 103 124.287 103 122.5C103 120.713 101.537 119.25 99.75 119.25ZM109.5 119.25C107.713 119.25 106.25 120.713 106.25 122.5C106.25 124.287 107.713 125.75 109.5 125.75C111.287 125.75 112.75 124.287 112.75 122.5C112.75 120.713 111.287 119.25 109.5 119.25Z" fill="white"/>
</svg>
