<svg width="180" height="180" viewBox="0 0 180 180" fill="none" xmlns="http://www.w3.org/2000/svg">
<circle cx="90" cy="90" r="90" fill="#0053B9"/>
<path fillRule="evenodd" clipRule="evenodd" d="M121.623 41C114.95 41 109.306 45.593 107.676 51.7593L105.88 50.9251C105.56 50.7762 105.211 50.699 104.858 50.699C104.505 50.699 104.156 50.7762 103.836 50.9251L74.141 64.7196L44.4464 50.9261C44.0769 50.7545 43.6702 50.6787 43.2637 50.7058C42.8572 50.7329 42.4641 50.862 42.1206 51.0812C41.7772 51.3003 41.4945 51.6024 41.2986 51.9596C41.1028 52.3169 41.0001 52.7177 41 53.1251V121.304C40.9999 121.766 41.132 122.219 41.3806 122.609C41.6293 122.999 41.9843 123.309 42.4036 123.504L73.1196 137.772C73.4399 137.921 73.7888 137.998 74.142 137.998C74.4952 137.998 74.8441 137.921 75.1644 137.772L104.859 123.978L134.554 137.772C136.161 138.518 138 137.345 138 135.574V67.3948C138 66.9325 137.868 66.4797 137.619 66.0899C137.371 65.7002 137.016 65.3896 136.596 65.1949L133.463 63.7379L134.444 62.0676C134.667 61.6631 134.845 61.2324 134.997 60.792C135.699 59.08 136.06 57.2473 136.06 55.3968C136.06 47.4845 129.559 41 121.623 41ZM121.623 47.7445C125.896 47.7445 129.294 51.1356 129.294 55.3968C129.294 59.6571 125.896 63.0453 121.623 63.0453C117.351 63.0453 113.953 59.6571 113.953 55.3968C113.953 51.1356 117.351 47.7445 121.623 47.7445ZM105.942 56.3018L107.278 56.9236C107.539 59.3474 108.415 61.6642 109.824 63.6535L119.862 81.0069C121.268 82.8441 122.204 82.4949 123.372 80.9099L130.994 67.938L133.15 68.941V131.773L106.302 119.302L106.083 80.8158C106.479 80.9012 106.874 80.9836 107.27 81.0777L108.163 77.3034C107.465 77.1383 106.763 76.9854 106.06 76.8446L105.942 56.3018ZM103.034 56.6452L103.146 76.3713C102.144 76.2338 101.137 76.1428 100.126 76.0987L99.9828 79.9748C101.038 80.0136 102.102 80.1281 103.169 80.2833L103.392 119.311L75.5766 132.234L75.2187 69.5676L103.034 56.6452ZM45.85 56.9256L72.3068 69.2155L72.6666 132.215L45.85 119.756V56.9256ZM95.8467 76.3635C94.511 76.6031 93.1443 77.0309 91.8717 77.771C90.3493 78.6525 89.0974 79.9339 88.2516 81.4764L91.6486 83.3505C92.1547 82.429 92.9008 81.6617 93.8078 81.1301L93.8136 81.1262L93.8194 81.1224C94.6022 80.6665 95.5344 80.3599 96.5325 80.1814L95.8467 76.3635ZM112.013 78.3336L110.914 82.0526C113.342 82.7704 115.746 83.5949 118.137 84.4873L119.494 80.8517C117.038 79.936 114.547 79.0824 112.013 78.3336ZM86.7908 85.7018L86.7617 85.855L86.7588 85.8686C86.2747 88.6147 86.3262 91.3171 86.4348 93.8857L90.3109 93.7208C90.2052 91.2289 90.1829 88.8174 90.5796 86.5544L90.6029 86.4331L86.7908 85.7018ZM90.5418 97.5455L86.6715 97.8074C86.8461 100.396 87.0323 102.934 87.0255 105.422L90.9055 105.432C90.9133 102.745 90.7164 100.118 90.5418 97.5455ZM86.8325 109.079C86.7258 110.003 86.5667 110.903 86.3339 111.766L86.332 111.771L86.33 111.778C85.9905 113.073 85.4192 114.272 84.6219 115.211L87.5775 117.724C88.8268 116.254 89.6193 114.525 90.0801 112.775L90.082 112.769C90.373 111.686 90.5621 110.596 90.6863 109.519L86.8325 109.079ZM54.0775 112.86L52.3354 116.327C54.741 117.536 57.2291 118.536 59.7346 119.402L61.0004 115.734C58.6191 114.913 56.294 113.974 54.0775 112.86ZM64.5885 116.85L63.5564 120.59C66.123 121.299 68.7614 121.863 71.458 122.166L71.8906 118.31C69.4453 118.036 67.0067 117.518 64.5885 116.85ZM82.1852 117.123C80.253 118.113 77.9201 118.478 75.5213 118.507L75.5698 122.387C78.3188 122.354 81.2579 121.957 83.9526 120.576L82.1852 117.123Z" fill="white"/>
</svg>
