<svg width="180" height="180" viewBox="0 0 180 180" fill="none" xmlns="http://www.w3.org/2000/svg">
<circle cx="90" cy="90" r="90" fill="#0053B9"/>
<path d="M121.767 138.43C123.768 131.708 126.785 126.693 130.822 123.392C136.875 118.441 146.493 121.519 150.046 116.41C153.598 111.301 147.557 101.908 145.438 96.3659C143.317 90.8236 153.564 88.8646 152.367 87.2907C151.571 86.2407 146.391 83.2149 136.832 78.2091C134.117 62.2469 124.086 54.2637 106.736 54.2637C80.713 54.2637 70.7986 77.0013 70.7986 91.4653C70.7986 105.925 82.8036 121.504 99.9046 124.865C101.434 127.158 99.2289 131.682 93.2896 138.43" stroke="white" stroke-width="4.667" stroke-linecap="round" stroke-linejoin="round"/>
<path fillRule="evenodd" clipRule="evenodd" d="M120.97 76.51C122.305 81.842 121.909 85.5874 119.78 87.7442C117.652 89.8988 114.026 91.3107 108.902 91.9735C110.065 98.8521 108.646 102.078 104.649 101.653C100.651 101.23 98.2483 99.517 97.4418 96.5185C91.1943 98.3281 87.8072 96.8131 87.2825 91.9735C86.4964 84.7142 90.2939 78.9256 91.8517 78.9256C93.4075 78.9256 97.4418 78.7299 97.4418 76.51C97.4418 74.2901 102.154 73.0381 106.407 73.0381C110.66 73.0381 108.101 70.0818 113.941 71.2496C117.834 72.0281 120.178 73.7809 120.97 76.51Z" fill="white" stroke="white" stroke-width="4" stroke-linejoin="round"/>
<path d="M98.6829 99C100.759 100.328 103.607 102.535 104.808 104.26C107.807 108.574 110.239 111.2 110.77 113.956" stroke="white" stroke-width="4" stroke-linecap="round"/>
<circle cx="49.5" cy="40.5" r="5" stroke="#FDFDFD" stroke-width="3"/>
<circle cx="25.5" cy="66.5" r="5" stroke="#FDFDFD" stroke-width="3"/>
<circle cx="36.5" cy="76.5" r="5" stroke="#FDFDFD" stroke-width="3"/>
<circle cx="42.5" cy="108.5" r="5" stroke="#FDFDFD" stroke-width="3"/>
<circle cx="32.5" cy="121.5" r="5" stroke="#FDFDFD" stroke-width="3"/>
<path d="M74.5 78.8711H63L50.5 92.5734H37.5" stroke="white" stroke-width="3"/>
<path d="M71 58.8073H52L40 51.4668" stroke="white" stroke-width="3"/>
<path d="M72.5 69.5723H55.5L46 78.3809" stroke="white" stroke-width="3"/>
<path d="M74.4356 49.0198H56.4257L41.5941 39.2324H31" stroke="white" stroke-width="3"/>
<path d="M81.7812 38.2534C80.1812 38.2534 65.7812 38.2534 58.7812 38.2534L49.7812 30.4235V19.168" stroke="white" stroke-width="3"/>
</svg>
