<svg width="180" height="180" viewBox="0 0 180 180" fill="none" xmlns="http://www.w3.org/2000/svg">
<circle cx="90" cy="90" r="89.5" fill="#0053B9" stroke="#0053B9"/>
<path d="M80.75 86.5007L74.8333 92.4173C71.404 88.9887 68.8465 84.788 67.375 80.1673L75.4583 78.1257C76.7917 81.834 78.6667 84.3757 80.75 86.5007ZM85.8333 65.0007L69.1667 48.334L52.5 65.0007H65.0833C65.1667 68.3757 65.4167 71.4173 65.875 74.0423L73.9583 72.0007C73.6667 70.0007 73.4583 67.6257 73.4167 65.0007H85.8333ZM127.5 65.0007L110.833 48.334L94.1667 65.0007H106.625C106.208 80.334 101.292 84.7923 96.0417 89.5007C93.9583 91.334 91.8333 93.334 90 95.959C88.5833 93.9173 86.9583 92.2923 85.2917 90.7923L79.4167 96.6673C83.2917 100.209 85.8333 103.084 85.8333 110.834V131.667H94.1667V110.834C94.1667 102.417 97.125 99.7507 101.625 95.709C107.375 90.5423 114.458 84.1257 114.958 65.0007H127.5Z" fill="white"/>
</svg>
