<?xml version="1.0" encoding="utf-8"?>
<!-- Generator: Adobe Illustrator 26.3.1, SVG Export Plug-In . SVG Version: 6.00 Build 0)  -->
<svg version="1.1" id="레이어_1" xmlns="http://www.w3.org/2000/svg" xmlns:xlink="http://www.w3.org/1999/xlink" x="0px"
	 y="0px" viewBox="0 0 30 30" style="enable-background:new 0 0 30 30;" xml:space="preserve">
<style type="text/css">
	.st0{fill:none;stroke:#79BF6C;stroke-width:2;stroke-linecap:round;stroke-linejoin:round;}
	.st1{opacity:0.2;fill:#E84846;enable-background:new    ;}
	.st2{fill:none;stroke:#E84846;stroke-width:2;stroke-linecap:round;stroke-linejoin:round;}
	.st3{opacity:0.2;fill:#8F59A0;enable-background:new    ;}
	.st4{fill:none;stroke:#8F59A0;stroke-width:2;stroke-linecap:round;stroke-linejoin:round;}
	.st5{fill:none;stroke:#B8AE31;stroke-width:2;stroke-linecap:round;stroke-linejoin:round;}
	.st6{fill:none;stroke:#5AB76C;stroke-width:2;stroke-linecap:round;stroke-linejoin:round;}
	.st7{opacity:0.2;fill:#3CB5D1;enable-background:new    ;}
	.st8{fill:none;stroke:#3CB5D1;stroke-width:2;stroke-linecap:round;stroke-linejoin:round;}
	.st9{opacity:0.2;fill:#CE8C3E;enable-background:new    ;}
	.st10{fill:none;stroke:#CE8C3E;stroke-width:2;stroke-linecap:round;stroke-linejoin:round;}
	.st11{opacity:0.2;fill:#CB3A8E;enable-background:new    ;}
	.st12{fill:none;stroke:#CB3A8E;stroke-width:2;stroke-linecap:round;stroke-linejoin:round;}
	.st13{fill:none;stroke:#3D59A6;stroke-width:2;stroke-linecap:round;stroke-linejoin:round;}
	.st14{fill:none;stroke:#AFADBD;stroke-width:1.2;stroke-linecap:round;stroke-linejoin:round;}
</style>
<g>
	<path class="st0" d="M-80.7-4L-88-2.2v-15.5l7.3-1.7"/>
	<path class="st0" d="M-73.3-0.5L-80.7-4v-15.5l7.3,3.5V-0.5z"/>
	<path class="st0" d="M-73.3-16l7.3-1.7v15.5l-7.3,1.7"/>
</g>
<g>
	<path class="st1" d="M-87.9,8.5C-88,8.6-88,8.8-88,8.9v10.2c0,0.1,0,0.3,0.1,0.4c0.1,0.1,0.2,0.2,0.3,0.3l10.1,5.1
		C-77.3,25-77.2,25-77,25l0,0l0.1-11L-87.9,8.5z"/>
	<path class="st2" d="M-66,19.1V8.9c0-0.1,0-0.3-0.1-0.4c-0.1-0.1-0.2-0.2-0.3-0.3l-10.1-5.1C-76.7,3-76.8,3-77,3s-0.3,0-0.4,0.1
		l-10.1,5.1c-0.1,0.1-0.3,0.2-0.3,0.3C-88,8.6-88,8.8-88,8.9v10.2c0,0.1,0,0.3,0.1,0.4c0.1,0.1,0.2,0.2,0.3,0.3l10.1,5.1
		C-77.3,25-77.2,25-77,25s0.3,0,0.4-0.1l10.1-5.1c0.1-0.1,0.3-0.2,0.3-0.3C-66,19.4-66,19.2-66,19.1L-66,19.1z"/>
	<path class="st2" d="M-66.1,8.5L-76.9,14l-11-5.5"/>
	<path class="st2" d="M-76.9,14L-77,25"/>
</g>
<g>
	<path class="st3" d="M-60.3,38h4.4c0.5,0,0.9,0.4,0.9,0.9v4.3c0,0.5-0.4,0.9-0.9,0.9h-4.4c-0.5,0-0.9-0.4-0.9-0.9v-4.3
		C-61.2,38.4-60.8,38-60.3,38z"/>
	<path class="st3" d="M-76.1,31.5h5.3c0.5,0,0.9,0.4,0.9,0.9v5.2c0,0.5-0.4,0.9-0.9,0.9h-5.3c-0.5,0-0.9-0.4-0.9-0.9v-5.2
		C-77,31.9-76.6,31.5-76.1,31.5z"/>
	<path class="st3" d="M-76.1,43.6h5.3c0.5,0,0.9,0.4,0.9,0.9v5.2c0,0.5-0.4,0.9-0.9,0.9h-5.3c-0.5,0-0.9-0.4-0.9-0.9v-5.2
		C-77,44-76.6,43.6-76.1,43.6z"/>
	<path class="st4" d="M-60.3,38h4.4c0.5,0,0.9,0.4,0.9,0.9v4.3c0,0.5-0.4,0.9-0.9,0.9h-4.4c-0.5,0-0.9-0.4-0.9-0.9v-4.3
		C-61.2,38.4-60.8,38-60.3,38z"/>
	<path class="st4" d="M-76.1,31.5h5.3c0.5,0,0.9,0.4,0.9,0.9v5.2c0,0.5-0.4,0.9-0.9,0.9h-5.3c-0.5,0-0.9-0.4-0.9-0.9v-5.2
		C-77,31.9-76.6,31.5-76.1,31.5z"/>
	<path class="st4" d="M-76.1,43.6h5.3c0.5,0,0.9,0.4,0.9,0.9v5.2c0,0.5-0.4,0.9-0.9,0.9h-5.3c-0.5,0-0.9-0.4-0.9-0.9v-5.2
		C-77,44-76.6,43.6-76.1,43.6z"/>
	<path class="st4" d="M-61.2,41h-4.4"/>
	<path class="st4" d="M-70,47h1.8c0.3,0,0.7-0.1,1-0.2c0.3-0.1,0.6-0.3,0.9-0.6s0.4-0.5,0.6-0.8c0.1-0.3,0.2-0.7,0.2-1v-6.9
		c0-0.3-0.1-0.7-0.2-1c-0.1-0.3-0.3-0.6-0.6-0.8c-0.2-0.2-0.5-0.4-0.9-0.6c-0.3-0.1-0.7-0.2-1-0.2H-70"/>
</g>
<g>
	<path class="st5" d="M-63,64.2l-6.7,6.4l-3.4-3.2"/>
	<path class="st5" d="M-68,78c6.1,0,11-4.9,11-11c0-6.1-4.9-11-11-11c-6.1,0-11,4.9-11,11C-79,73.1-74.1,78-68,78z"/>
</g>
<g>
	<path class="st6" d="M-68,81.9c-7.9,0-11,7.1-11,7.1s3.1,7.1,11,7.1S-57,89-57,89S-60.1,81.9-68,81.9z"/>
	<path class="st6" d="M-68,92.9c2.2,0,3.9-1.8,3.9-3.9s-1.8-3.9-3.9-3.9s-3.9,1.8-3.9,3.9S-70.2,92.9-68,92.9z"/>
</g>
<g>
	<path class="st7" d="M-88,108.3c1.8,0,3.3-1.5,3.3-3.3s-1.5-3.3-3.3-3.3s-3.3,1.5-3.3,3.3S-89.8,108.3-88,108.3z"/>
	<path class="st8" d="M-88,114c5,0,9-4,9-9s-4-9-9-9s-9,4-9,9S-93,114-88,114z"/>
	<path class="st8" d="M-88,94v4.1"/>
	<path class="st8" d="M-99,105h4.1"/>
	<path class="st8" d="M-88,116v-4.1"/>
	<path class="st8" d="M-77,105h-4.1"/>
	<path class="st8" d="M-88,108.3c1.8,0,3.3-1.5,3.3-3.3s-1.5-3.3-3.3-3.3s-3.3,1.5-3.3,3.3S-89.8,108.3-88,108.3z"/>
</g>
<g>
	<path class="st9" d="M-62,131.5c3,0,5.5-2.5,5.5-5.5c0-3-2.5-5.5-5.5-5.5c-3,0-5.5,2.5-5.5,5.5C-67.5,129-65,131.5-62,131.5z"/>
	<path class="st10" d="M-62,126l11-11"/>
	<path class="st10" d="M-54.2,118.2c-1.9-2-4.6-3.1-7.3-3.2c-2.8-0.1-5.5,0.8-7.6,2.6c-2.1,1.8-3.5,4.3-3.8,7
		c-0.4,2.7,0.3,5.5,1.9,7.8c1.6,2.3,4,3.8,6.7,4.4c2.7,0.6,5.5,0.1,7.9-1.3c2.4-1.4,4.1-3.6,5-6.3c0.8-2.6,0.6-5.5-0.6-8"/>
	<path class="st10" d="M-58.1,122.1c-0.9-0.9-2.1-1.5-3.4-1.6c-1.3-0.1-2.5,0.2-3.6,0.9c-1.1,0.7-1.8,1.8-2.2,3
		c-0.3,1.2-0.2,2.5,0.3,3.7c0.5,1.2,1.4,2.1,2.6,2.7c1.1,0.6,2.5,0.7,3.7,0.4c1.2-0.3,2.3-1,3.1-2.1c0.8-1,1.1-2.3,1.1-3.6"/>
</g>
<g>
	<path class="st11" d="M-30,153c2.2,0,4-1.8,4-4s-1.8-4-4-4s-4,1.8-4,4S-32.2,153-30,153z"/>
	<path class="st11" d="M-30,135c2.2,0,4-1.8,4-4c0-2.2-1.8-4-4-4s-4,1.8-4,4C-34,133.2-32.2,135-30,135z"/>
	<path class="st12" d="M-44,144c2.2,0,4-1.8,4-4s-1.8-4-4-4c-2.2,0-4,1.8-4,4S-46.2,144-44,144z"/>
	<path class="st12" d="M-30,153c2.2,0,4-1.8,4-4s-1.8-4-4-4s-4,1.8-4,4S-32.2,153-30,153z"/>
	<path class="st12" d="M-30,135c2.2,0,4-1.8,4-4c0-2.2-1.8-4-4-4s-4,1.8-4,4C-34,133.2-32.2,135-30,135z"/>
	<path class="st12" d="M-33.4,133.2l-7.3,4.7"/>
	<path class="st12" d="M-40.6,142.2l7.3,4.7"/>
</g>
<g>
	<path class="st13" d="M-74.8-28.5c1.5,0,2.8-1.2,2.8-2.7c0-1.5-1.2-2.7-2.8-2.7s-2.8,1.2-2.8,2.7C-77.5-29.7-76.3-28.5-74.8-28.5z"
		/>
	<path class="st13" d="M-89.4-47.5h11c1,0,1.9,0.4,2.6,1.1s1.1,1.6,1.1,2.6c0,1-0.4,1.9-1.1,2.6c-0.7,0.7-1.6,1.1-2.6,1.1h-11
		c-1.2,0-2.4,0.5-3.2,1.3c-0.9,0.8-1.3,2-1.3,3.2c0,1.2,0.5,2.4,1.3,3.2c0.9,0.8,2,1.3,3.2,1.3h11.9"/>
</g>
<g>
	<path class="st14" d="M51.6-23.5h24.9v17.9c0,0.3-0.1,0.5-0.3,0.7c-0.2,0.2-0.5,0.3-0.7,0.3H52.6c-0.3,0-0.5-0.1-0.7-0.3
		c-0.2-0.2-0.3-0.5-0.3-0.7V-23.5z"/>
	<path class="st14" d="M76.4-23.5L64-11.9L51.6-23.5"/>
</g>
<path class="st14" d="M10.9,15.1c0.9,1.8,2.3,3.2,4,4c0.1,0.1,0.3,0.1,0.4,0.1c0.1,0,0.3-0.1,0.4-0.1l2.6-1.7
	c0.1-0.1,0.2-0.1,0.4-0.1c0.1,0,0.3,0,0.4,0.1l4.8,2.1c0.2,0.1,0.3,0.2,0.4,0.3c0.1,0.2,0.1,0.3,0.1,0.5c-0.2,1.2-0.7,2.3-1.6,3.1
	c-0.9,0.8-2.1,1.2-3.3,1.2c-3.7,0-7.3-1.5-9.9-4.1c-2.6-2.6-4.1-6.2-4.1-9.9c0-1.2,0.4-2.4,1.2-3.3c0.8-0.9,1.9-1.5,3.1-1.6
	c0.2,0,0.4,0,0.5,0.1c0.2,0.1,0.3,0.2,0.3,0.4l2.1,4.9c0.1,0.1,0.1,0.3,0.1,0.4c0,0.1-0.1,0.3-0.1,0.4L11,14.3
	c-0.1,0.1-0.1,0.3-0.1,0.4C10.8,14.8,10.9,14.9,10.9,15.1L10.9,15.1z"/>
<g>
	<path class="st14" d="M40.2,63.9v-4.2h13.5v4.2"/>
	<path class="st14" d="M53.8,71.5H40.2v7.2h13.5V71.5z"/>
	<path class="st14" d="M40.2,74h-3.8v-8.4c0-0.9,0.8-1.7,1.8-1.7h17.5c1,0,1.8,0.8,1.8,1.7V74h-3.8"/>
</g>
</svg>
