<?xml version="1.0" encoding="utf-8"?>
<!-- Generator: Adobe Illustrator 26.3.1, SVG Export Plug-In . SVG Version: 6.00 Build 0)  -->
<svg version="1.1" id="레이어_1" xmlns="http://www.w3.org/2000/svg" xmlns:xlink="http://www.w3.org/1999/xlink" x="0px"
	 y="0px" viewBox="0 0 30 30" style="enable-background:new 0 0 30 30;" xml:space="preserve">
<style type="text/css">
	.st0{fill:none;stroke:#79BF6C;stroke-width:2;stroke-linecap:round;stroke-linejoin:round;}
	.st1{opacity:0.2;fill:#E84846;enable-background:new    ;}
	.st2{fill:none;stroke:#E84846;stroke-width:2;stroke-linecap:round;stroke-linejoin:round;}
	.st3{opacity:0.2;fill:#8F59A0;enable-background:new    ;}
	.st4{fill:none;stroke:#8F59A0;stroke-width:2;stroke-linecap:round;stroke-linejoin:round;}
	.st5{fill:none;stroke:#B8AE31;stroke-width:2;stroke-linecap:round;stroke-linejoin:round;}
	.st6{fill:none;stroke:#5AB76C;stroke-width:2;stroke-linecap:round;stroke-linejoin:round;}
	.st7{opacity:0.2;fill:#3CB5D1;enable-background:new    ;}
	.st8{fill:none;stroke:#3CB5D1;stroke-width:2;stroke-linecap:round;stroke-linejoin:round;}
	.st9{opacity:0.2;fill:#CE8C3E;enable-background:new    ;}
	.st10{fill:none;stroke:#CE8C3E;stroke-width:2;stroke-linecap:round;stroke-linejoin:round;}
	.st11{opacity:0.2;fill:#CB3A8E;enable-background:new    ;}
	.st12{fill:none;stroke:#CB3A8E;stroke-width:2;stroke-linecap:round;stroke-linejoin:round;}
	.st13{fill:none;stroke:#3D59A6;stroke-width:2;stroke-linecap:round;stroke-linejoin:round;}
</style>
<g>
	<path class="st0" d="M11.3,21L4,22.8V7.2l7.3-1.7"/>
	<path class="st0" d="M18.7,24.5L11.3,21V5.5L18.7,9V24.5z"/>
	<path class="st0" d="M18.7,9L26,7.2v15.5l-7.3,1.7"/>
</g>
<g>
	<path class="st1" d="M55.8-25c-0.1,0.1-0.1,0.2-0.1,0.3v6.9c0,0.1,0,0.2,0.1,0.3s0.1,0.2,0.2,0.2l6.2,3.5c0.1,0,0.2,0.1,0.3,0.1
		l0,0l0.1-7.5L55.8-25z"/>
	<path class="st2" d="M69.2-17.8v-6.9c0-0.1,0-0.2-0.1-0.3c-0.1-0.1-0.1-0.2-0.2-0.2l-6.2-3.5c-0.1,0-0.2-0.1-0.3-0.1
		s-0.2,0-0.3,0.1L56-25.2c-0.1,0-0.2,0.1-0.2,0.2c-0.1,0.1-0.1,0.2-0.1,0.3v6.9c0,0.1,0,0.2,0.1,0.3c0.1,0.1,0.1,0.2,0.2,0.2
		l6.2,3.5c0.1,0,0.2,0.1,0.3,0.1s0.2,0,0.3-0.1l6.2-3.5c0.1,0,0.2-0.1,0.2-0.2C69.2-17.6,69.2-17.7,69.2-17.8L69.2-17.8z"/>
	<path class="st2" d="M69.1-25l-6.6,3.8L55.8-25"/>
	<path class="st2" d="M62.5-21.3l-0.1,7.5"/>
</g>
<g>
	<path class="st3" d="M70.6-4.7h2.8c0.3,0,0.6,0.3,0.6,0.6v2.8c0,0.3-0.3,0.6-0.6,0.6h-2.8c-0.3,0-0.6-0.3-0.6-0.6v-2.8
		C70.1-4.5,70.3-4.7,70.6-4.7z"/>
	<path class="st3" d="M60.5-8.9h3.4c0.3,0,0.6,0.3,0.6,0.6V-5c0,0.3-0.3,0.6-0.6,0.6h-3.4c-0.3,0-0.6-0.3-0.6-0.6v-3.4
		C59.9-8.7,60.2-8.9,60.5-8.9z"/>
	<path class="st3" d="M60.5-1.1h3.4c0.3,0,0.6,0.3,0.6,0.6v3.4c0,0.3-0.3,0.6-0.6,0.6h-3.4c-0.3,0-0.6-0.3-0.6-0.6v-3.4
		C59.9-0.8,60.2-1.1,60.5-1.1z"/>
	<path class="st4" d="M70.6-4.7h2.8c0.3,0,0.6,0.3,0.6,0.6v2.8c0,0.3-0.3,0.6-0.6,0.6h-2.8c-0.3,0-0.6-0.3-0.6-0.6v-2.8
		C70.1-4.5,70.3-4.7,70.6-4.7z"/>
	<path class="st4" d="M60.5-8.9h3.4c0.3,0,0.6,0.3,0.6,0.6V-5c0,0.3-0.3,0.6-0.6,0.6h-3.4c-0.3,0-0.6-0.3-0.6-0.6v-3.4
		C59.9-8.7,60.2-8.9,60.5-8.9z"/>
	<path class="st4" d="M60.5-1.1h3.4c0.3,0,0.6,0.3,0.6,0.6v3.4c0,0.3-0.3,0.6-0.6,0.6h-3.4c-0.3,0-0.6-0.3-0.6-0.6v-3.4
		C59.9-0.8,60.2-1.1,60.5-1.1z"/>
	<path class="st4" d="M70.1-2.7h-2.8"/>
	<path class="st4" d="M64.4,1.2h1.1c0.2,0,0.4,0,0.6-0.1c0.2-0.1,0.4-0.2,0.5-0.4c0.2-0.2,0.3-0.3,0.4-0.5c0.1-0.2,0.1-0.4,0.1-0.6
		V-5c0-0.2,0-0.4-0.1-0.6C67-5.8,66.9-6,66.8-6.2c-0.2-0.2-0.3-0.3-0.5-0.4c-0.2-0.1-0.4-0.1-0.6-0.1h-1.1"/>
</g>
<g>
	<path class="st5" d="M69.4,18.5l-2.8,2.6l-1.4-1.3"/>
	<path class="st5" d="M67.4,24.2c2.5,0,4.5-2,4.5-4.5c0-2.5-2-4.5-4.5-4.5c-2.5,0-4.5,2-4.5,4.5C62.9,22.1,64.9,24.2,67.4,24.2z"/>
</g>
<g>
	<path class="st6" d="M65.8,38.5c-5.6,0-7.9,5.1-7.9,5.1s2.3,5.1,7.9,5.1s7.9-5.1,7.9-5.1S71.4,38.5,65.8,38.5z"/>
	<path class="st6" d="M65.8,46.4c1.6,0,2.8-1.3,2.8-2.8c0-1.6-1.3-2.8-2.8-2.8S63,42,63,43.6C63,45.1,64.2,46.4,65.8,46.4z"/>
</g>
<g>
	<path class="st7" d="M66.3,67.8c1.2,0,2.3-1,2.3-2.3c0-1.2-1-2.3-2.3-2.3s-2.3,1-2.3,2.3C64,66.8,65,67.8,66.3,67.8z"/>
	<path class="st8" d="M66.3,71.8c3.4,0,6.2-2.8,6.2-6.2c0-3.4-2.8-6.2-6.2-6.2c-3.4,0-6.2,2.8-6.2,6.2C60.1,69,62.9,71.8,66.3,71.8z
		"/>
	<path class="st8" d="M66.3,58v2.8"/>
	<path class="st8" d="M58.7,65.6h2.8"/>
	<path class="st8" d="M66.3,73.2v-2.8"/>
	<path class="st8" d="M73.9,65.6h-2.8"/>
	<path class="st8" d="M66.3,67.8c1.2,0,2.3-1,2.3-2.3c0-1.2-1-2.3-2.3-2.3s-2.3,1-2.3,2.3C64,66.8,65,67.8,66.3,67.8z"/>
</g>
<g>
	<path class="st9" d="M65.3,93.5c1.9,0,3.4-1.5,3.4-3.4c0-1.9-1.5-3.4-3.4-3.4c-1.9,0-3.4,1.5-3.4,3.4C61.9,92,63.4,93.5,65.3,93.5z
		"/>
	<path class="st10" d="M65.3,90.1l6.8-6.8"/>
	<path class="st10" d="M70.1,85.3c-1.2-1.2-2.8-1.9-4.5-2s-3.4,0.5-4.7,1.6c-1.3,1.1-2.1,2.6-2.4,4.3c-0.2,1.7,0.2,3.4,1.2,4.8
		c1,1.4,2.4,2.4,4.1,2.7c1.7,0.4,3.4,0.1,4.9-0.8c1.5-0.9,2.6-2.2,3.1-3.9c0.5-1.6,0.4-3.4-0.4-4.9"/>
	<path class="st10" d="M67.7,87.7c-0.6-0.6-1.3-0.9-2.1-1c-0.8-0.1-1.6,0.1-2.2,0.6c-0.6,0.4-1.1,1.1-1.3,1.9
		c-0.2,0.8-0.2,1.6,0.2,2.3c0.3,0.7,0.9,1.3,1.6,1.6c0.7,0.3,1.5,0.4,2.3,0.2c0.8-0.2,1.4-0.6,1.9-1.3s0.7-1.4,0.7-2.2"/>
</g>
<g>
	<path class="st11" d="M68.2,121.5c1.2,0,2.3-1,2.3-2.3s-1-2.3-2.3-2.3s-2.3,1-2.3,2.3S67,121.5,68.2,121.5z"/>
	<path class="st11" d="M68.2,111.3c1.2,0,2.3-1,2.3-2.3c0-1.2-1-2.3-2.3-2.3s-2.3,1-2.3,2.3C66,110.3,67,111.3,68.2,111.3z"/>
	<path class="st12" d="M60.3,116.4c1.2,0,2.3-1,2.3-2.3c0-1.2-1-2.3-2.3-2.3c-1.2,0-2.3,1-2.3,2.3C58.1,115.4,59.1,116.4,60.3,116.4
		z"/>
	<path class="st12" d="M68.2,121.5c1.2,0,2.3-1,2.3-2.3s-1-2.3-2.3-2.3s-2.3,1-2.3,2.3S67,121.5,68.2,121.5z"/>
	<path class="st12" d="M68.2,111.3c1.2,0,2.3-1,2.3-2.3c0-1.2-1-2.3-2.3-2.3s-2.3,1-2.3,2.3C66,110.3,67,111.3,68.2,111.3z"/>
	<path class="st12" d="M66.3,110.3l-4.1,2.6"/>
	<path class="st12" d="M62.2,115.4l4.1,2.6"/>
</g>
<g>
	<path class="st13" d="M-74.8-28.5c1.5,0,2.8-1.2,2.8-2.7c0-1.5-1.2-2.7-2.8-2.7s-2.8,1.2-2.8,2.7C-77.5-29.7-76.3-28.5-74.8-28.5z"
		/>
	<path class="st13" d="M-89.4-47.5h11c1,0,1.9,0.4,2.6,1.1s1.1,1.6,1.1,2.6c0,1-0.4,1.9-1.1,2.6c-0.7,0.7-1.6,1.1-2.6,1.1h-11
		c-1.2,0-2.4,0.5-3.2,1.3c-0.9,0.8-1.3,2-1.3,3.2c0,1.2,0.5,2.4,1.3,3.2c0.9,0.8,2,1.3,3.2,1.3h11.9"/>
</g>
</svg>
