<?xml version="1.0" encoding="utf-8"?>
<!-- Generator: Adobe Illustrator 27.7.0, SVG Export Plug-In . SVG Version: 6.00 Build 0)  -->
<svg version="1.1" id="레이어_1" xmlns="http://www.w3.org/2000/svg" xmlns:xlink="http://www.w3.org/1999/xlink" x="0px"
	 y="0px" viewBox="0 0 141 41.9" style="enable-background:new 0 0 141 41.9;" xml:space="preserve">
<style type="text/css">
	.st0{fill:#0054A5;}
	.st1{fill:#F18B2C;}
	.st2{fill-rule:evenodd;clip-rule:evenodd;fill:#0054A5;}
	.st3{fill:#FFFFFF;}
	.st4{fill-rule:evenodd;clip-rule:evenodd;fill:#FFFFFF;}
</style>
<g>
	<g>
		<path class="st0" d="M533-295.7h-6.7l-1.1,3.5h-3.5l6-18.6h3.9l6,18.6h-3.5L533-295.7z M532.1-298.7l-2.4-7.8l-2.4,7.8H532.1z"/>
		<path class="st0" d="M551.7-300.2c0.6,0.9,0.9,1.8,0.9,2.9c0,1-0.2,1.9-0.7,2.6c-0.4,0.8-1.1,1.3-1.9,1.8
			c-0.8,0.4-1.8,0.6-2.9,0.6h-7.2v-18.6h6.9c1.1,0,2.1,0.2,2.9,0.6c0.8,0.4,1.4,1,1.9,1.7c0.4,0.7,0.6,1.6,0.6,2.5
			c0,1.1-0.3,2-0.8,2.7c-0.5,0.7-1.2,1.2-2.1,1.5C550.3-301.5,551.1-301,551.7-300.2z M543.2-303.1h3.1c0.8,0,1.4-0.2,1.8-0.6
			c0.4-0.4,0.6-1,0.6-1.7s-0.2-1.3-0.6-1.7c-0.4-0.4-1-0.6-1.8-0.6h-3.1V-303.1z M548.5-295.9c0.5-0.4,0.7-1,0.7-1.8
			c0-0.8-0.2-1.4-0.7-1.9c-0.5-0.5-1.1-0.7-1.9-0.7h-3.3v5h3.4C547.4-295.2,548.1-295.4,548.5-295.9z"/>
	</g>
	<g>
		<path class="st0" d="M453.3-296c0,0.5,0.4,0.8,0.8,0.8h7.3l-1,3h-7.8c-1.5,0-2.8-1.2-2.8-2.8v-15.8h3.3V-296z"/>
		<path class="st0" d="M474-295.7h-6.6l-1.1,3.5h-3.5l6-18.6h3.9l6,18.6h-3.5L474-295.7z M473.1-298.7l-2.4-7.8l-2.4,7.8H473.1z"/>
	</g>
	<path class="st0" d="M499.1-310.8v18.6h-3.3v-12.1l-4.5,12.1h-2.5l-4.5-12.1v12.1h-3.3v-18.6h3.8L490-297l5.3-13.8H499.1z"/>
	<path class="st0" d="M505.7-310.8v18.6h-3.3v-18.6H505.7z"/>
	<path class="st0" d="M513.2-295.2c-0.5,0-0.8-0.4-0.8-0.8v-10.1l-3.3,2.6v8.6c0,1.5,1.2,2.8,2.8,2.8h7.8l1-3H513.2z"/>
	<polygon class="st1" points="512.4,-308.7 509,-306.1 509,-310.8 512.4,-310.8 	"/>
</g>
<g>
	<g>
		<g>
			<path class="st0" d="M-74.8-142.6h-6.7l-1.1,3.5h-3.5l6-18.6h3.9l6,18.6h-3.5L-74.8-142.6z M-75.8-145.5l-2.4-7.8l-2.4,7.8H-75.8
				z"/>
			<path class="st0" d="M-56.2-147c0.6,0.9,0.9,1.8,0.9,2.9c0,1-0.2,1.9-0.7,2.6c-0.4,0.8-1.1,1.3-1.9,1.8c-0.8,0.4-1.8,0.6-2.9,0.6
				H-68v-18.6h6.9c1.1,0,2.1,0.2,2.9,0.6c0.8,0.4,1.4,1,1.9,1.7c0.4,0.7,0.6,1.6,0.6,2.5c0,1.1-0.3,2-0.8,2.7
				c-0.5,0.7-1.2,1.2-2.1,1.5C-57.5-148.4-56.8-147.8-56.2-147z M-64.6-149.9h3.1c0.8,0,1.4-0.2,1.8-0.6c0.4-0.4,0.6-1,0.6-1.7
				s-0.2-1.3-0.6-1.7c-0.4-0.4-1-0.6-1.8-0.6h-3.1V-149.9z M-59.3-142.7c0.5-0.4,0.7-1,0.7-1.8c0-0.8-0.2-1.4-0.7-1.9
				c-0.5-0.5-1.1-0.7-1.9-0.7h-3.3v5h3.4C-60.4-142.1-59.8-142.3-59.3-142.7z"/>
		</g>
		<g>
			<path class="st0" d="M-154.5-142.8c0,0.5,0.4,0.8,0.8,0.8h7.3l-1,3h-7.8c-1.5,0-2.8-1.2-2.8-2.8v-15.8h3.3V-142.8z"/>
			<path class="st0" d="M-133.9-142.6h-6.6l-1.1,3.5h-3.5l6-18.6h3.9l6,18.6h-3.5L-133.9-142.6z M-134.8-145.5l-2.4-7.8l-2.4,7.8
				H-134.8z"/>
		</g>
		<path class="st0" d="M-108.8-157.6v18.6h-3.3v-12.1l-4.5,12.1h-2.5l-4.5-12.1v12.1h-3.3v-18.6h3.8l5.3,13.8l5.3-13.8H-108.8z"/>
		<path class="st0" d="M-102.1-157.6v18.6h-3.3v-18.6H-102.1z"/>
		<path class="st0" d="M-94.7-142c-0.5,0-0.8-0.4-0.8-0.8v-10.1l-3.3,2.6v8.6c0,1.5,1.2,2.8,2.8,2.8h7.8l1-3H-94.7z"/>
		<polygon class="st1" points="-95.5,-155.5 -98.9,-152.9 -98.9,-157.6 -95.5,-157.6 		"/>
	</g>
	<g>
		<path class="st1" d="M-177.1-164.1v2.2l-5.5,5.5v-7c1.3-0.5,2.7-0.7,4.2-0.7C-178-164.2-177.5-164.1-177.1-164.1L-177.1-164.1z"/>
		<path class="st2" d="M-173.1-142.9h4.6c1.8-2.6,3-5.5,3-8.3c0-6.7-5.1-12.2-11.6-12.9v2.2l-5.5,5.5v-7c-5.1,1.7-8.7,6.6-8.7,12.2
			c-0.1,8.8,12.9,18.7,12.9,18.7s2.6-2,5.4-4.9h-0.1c-5.2,0-9.5-4.3-9.5-9.5v-6.9l5.5-5.5v12.4
			C-177.1-144.7-175.3-142.9-173.1-142.9z"/>
	</g>
</g>
<g>
	<g>
		<g>
			<path class="st0" d="M-196-260.4h-5.6l-0.9,3h-3l5.1-15.7h3.3l5.1,15.7h-3L-196-260.4z M-196.8-262.9l-2-6.6l-2,6.6H-196.8z"/>
			<path class="st0" d="M-180.2-264.1c0.5,0.7,0.8,1.5,0.8,2.5c0,0.8-0.2,1.6-0.6,2.2c-0.4,0.6-0.9,1.1-1.6,1.5
				c-0.7,0.4-1.5,0.5-2.5,0.5h-6.1v-15.7h5.8c1,0,1.8,0.2,2.5,0.5c0.7,0.3,1.2,0.8,1.6,1.4c0.4,0.6,0.5,1.3,0.5,2.1
				c0,0.9-0.2,1.7-0.7,2.3c-0.4,0.6-1,1.1-1.8,1.3C-181.4-265.3-180.7-264.9-180.2-264.1z M-187.3-266.6h2.6c0.7,0,1.2-0.2,1.6-0.5
				c0.4-0.3,0.5-0.8,0.5-1.5c0-0.6-0.2-1.1-0.5-1.5c-0.4-0.3-0.9-0.5-1.6-0.5h-2.6V-266.6z M-182.9-260.5c0.4-0.4,0.6-0.9,0.6-1.5
				c0-0.7-0.2-1.2-0.6-1.6c-0.4-0.4-1-0.6-1.6-0.6h-2.8v4.2h2.9C-183.8-260-183.3-260.2-182.9-260.5z"/>
		</g>
		<g>
			<path class="st0" d="M-263.5-260.6c0,0.4,0.3,0.7,0.7,0.7h6.2l-0.8,2.5h-6.6c-1.3,0-2.3-1-2.3-2.3v-13.4h2.8V-260.6z"/>
			<path class="st0" d="M-246-260.4h-5.6l-0.9,3h-3l5.1-15.7h3.3l5.1,15.7h-3L-246-260.4z M-246.8-262.9l-2-6.6l-2,6.6H-246.8z"/>
		</g>
		<path class="st0" d="M-224.7-273.1v15.7h-2.8v-10.2l-3.8,10.2h-2.1l-3.8-10.2v10.2h-2.8v-15.7h3.2l4.5,11.7l4.5-11.7H-224.7z"/>
		<path class="st0" d="M-219.1-273.1v15.7h-2.8v-15.7H-219.1z"/>
		<path class="st0" d="M-212.8-259.9c-0.4,0-0.7-0.3-0.7-0.7v-8.6l-2.8,2.2v7.2c0,1.3,1,2.3,2.3,2.3h6.6l0.8-2.5H-212.8z"/>
		<polygon class="st1" points="-213.5,-271.4 -216.3,-269.2 -216.3,-273.1 -213.5,-273.1 		"/>
	</g>
	<path class="st1" d="M-220.4-342.4v4l-10.3,10.3v-13.1c2.5-0.8,5.1-1.3,7.9-1.3C-222-342.5-221.2-342.5-220.4-342.4L-220.4-342.4z"
		/>
	<path class="st2" d="M-213-302.9h8.6c3.3-4.9,5.7-10.3,5.7-15.5c0-12.5-9.5-22.8-21.7-24v4l-10.3,10.3v-13.1
		c-9.5,3.3-16.3,12.2-16.3,22.8c-0.2,16.4,24.1,35,24.1,35s4.8-3.7,10.1-9.2h-0.2c-9.7,0-17.7-8-17.7-17.7v-12.8l10.3-10.3v23.1
		C-220.4-306.2-217.1-302.9-213-302.9z"/>
</g>
<g>
	<path class="st1" d="M-204-457.3v4l-10.3,10.3v-13.1c2.5-0.8,5.1-1.3,7.9-1.3C-205.6-457.5-204.8-457.4-204-457.3L-204-457.3z"/>
	<path class="st2" d="M-196.5-417.8h8.6c3.3-4.9,5.7-10.3,5.7-15.5c0-12.5-9.5-22.8-21.7-24v4l-10.3,10.3v-13.1
		c-9.5,3.3-16.3,12.2-16.3,22.8c-0.2,16.4,24.1,35,24.1,35s4.8-3.7,10.1-9.2h-0.2c-9.7,0-17.7-8-17.7-17.7v-12.8l10.3-10.3v23.1
		C-204-421.2-200.6-417.8-196.5-417.8z"/>
</g>
<g>
	<g>
		<g>
			<path class="st3" d="M120.3,26.9h-6.8l-1.1,3.6h-3.6l6.2-19.1h4l6.2,19.1h-3.6L120.3,26.9z M119.4,23.8l-2.5-8l-2.5,8H119.4z"/>
			<path class="st3" d="M139.6,22.3c0.6,0.9,0.9,1.9,0.9,3c0,1-0.2,1.9-0.7,2.7c-0.5,0.8-1.1,1.4-2,1.8c-0.9,0.4-1.9,0.7-3,0.7h-7.4
				V11.4h7.1c1.2,0,2.2,0.2,3,0.6c0.8,0.4,1.5,1,1.9,1.7c0.4,0.7,0.7,1.6,0.7,2.5c0,1.1-0.3,2-0.8,2.8c-0.5,0.7-1.2,1.3-2.1,1.6
				C138.1,20.9,138.9,21.5,139.6,22.3z M130.9,19.3h3.2c0.8,0,1.5-0.2,1.9-0.6c0.4-0.4,0.7-1,0.7-1.8s-0.2-1.4-0.7-1.8
				c-0.4-0.4-1.1-0.6-1.9-0.6h-3.2V19.3z M136.3,26.7c0.5-0.4,0.7-1.1,0.7-1.9c0-0.8-0.2-1.5-0.7-1.9c-0.5-0.5-1.2-0.7-2-0.7h-3.4
				v5.1h3.5C135.2,27.4,135.8,27.2,136.3,26.7z"/>
		</g>
		<g>
			<path class="st3" d="M38.3,26.6c0,0.5,0.4,0.9,0.9,0.9h7.5l-1,3h-8c-1.6,0-2.8-1.3-2.8-2.8V11.4h3.4V26.6z"/>
			<path class="st3" d="M59.6,26.9h-6.8l-1.1,3.6H48l6.2-19.1h4l6.2,19.1h-3.6L59.6,26.9z M58.7,23.8l-2.5-8l-2.5,8H58.7z"/>
		</g>
		<path class="st3" d="M85.4,11.4v19.1H82V18.1l-4.6,12.4h-2.6l-4.6-12.4v12.4h-3.4V11.4h3.9l5.5,14.2l5.5-14.2H85.4z"/>
		<path class="st3" d="M92.3,11.4v19.1h-3.4V11.4H92.3z"/>
		<path class="st3" d="M100,27.5c-0.5,0-0.9-0.4-0.9-0.9V16.2l-3.4,2.7v8.8c0,1.6,1.3,2.8,2.8,2.8h8l1-3H100z"/>
		<polygon class="st1" points="99.1,13.5 95.6,16.2 95.6,11.4 99.1,11.4 		"/>
	</g>
	<g>
		<path class="st1" d="M15.1,4.7v2.2l-5.7,5.7V5.4c1.4-0.5,2.8-0.7,4.3-0.7C14.2,4.7,14.7,4.7,15.1,4.7L15.1,4.7z"/>
		<path class="st4" d="M19.2,26.5H24c1.8-2.7,3.1-5.7,3.1-8.6c0-6.9-5.2-12.6-12-13.2v2.2l-5.7,5.7V5.4c-5.2,1.8-9,6.7-9,12.6
			c-0.1,9,13.3,19.3,13.3,19.3s2.6-2,5.6-5.1h-0.1c-5.4,0-9.8-4.4-9.8-9.8v-7.1l5.7-5.7v12.7C15.1,24.7,17,26.5,19.2,26.5z"/>
	</g>
</g>
<g>
	<g>
		<path class="st3" d="M531.5-330.5h-6.7l-1.1,3.5h-3.5l6-18.6h3.9l6,18.6h-3.5L531.5-330.5z M530.6-333.4l-2.4-7.8l-2.4,7.8H530.6z
			"/>
		<path class="st3" d="M550.2-334.9c0.6,0.9,0.9,1.8,0.9,2.9c0,1-0.2,1.9-0.7,2.6c-0.4,0.8-1.1,1.3-1.9,1.8
			c-0.8,0.4-1.8,0.6-2.9,0.6h-7.2v-18.6h6.9c1.1,0,2.1,0.2,2.9,0.6c0.8,0.4,1.4,1,1.9,1.7c0.4,0.7,0.6,1.6,0.6,2.5
			c0,1.1-0.3,2-0.8,2.7c-0.5,0.7-1.2,1.2-2.1,1.5C548.8-336.3,549.6-335.7,550.2-334.9z M541.7-337.8h3.1c0.8,0,1.4-0.2,1.8-0.6
			c0.4-0.4,0.6-1,0.6-1.7s-0.2-1.3-0.6-1.7c-0.4-0.4-1-0.6-1.8-0.6h-3.1V-337.8z M547-330.6c0.5-0.4,0.7-1,0.7-1.8
			c0-0.8-0.2-1.4-0.7-1.9c-0.5-0.5-1.1-0.7-1.9-0.7h-3.3v5h3.4C545.9-330,546.6-330.2,547-330.6z"/>
	</g>
	<g>
		<path class="st3" d="M451.8-330.7c0,0.5,0.4,0.8,0.8,0.8h7.3l-1,3h-7.8c-1.5,0-2.8-1.2-2.8-2.8v-15.8h3.3V-330.7z"/>
		<path class="st3" d="M472.5-330.5h-6.6l-1.1,3.5h-3.5l6-18.6h3.9l6,18.6h-3.5L472.5-330.5z M471.6-333.4l-2.4-7.8l-2.4,7.8H471.6z
			"/>
	</g>
	<path class="st3" d="M497.6-345.5v18.6h-3.3V-339l-4.5,12.1h-2.5l-4.5-12.1v12.1h-3.3v-18.6h3.8l5.3,13.8l5.3-13.8H497.6z"/>
	<path class="st3" d="M504.2-345.5v18.6h-3.3v-18.6H504.2z"/>
	<path class="st3" d="M511.7-329.9c-0.5,0-0.8-0.4-0.8-0.8v-10.1l-3.3,2.6v8.6c0,1.5,1.2,2.8,2.8,2.8h7.8l1-3H511.7z"/>
	<polygon class="st1" points="510.9,-343.4 507.5,-340.8 507.5,-345.5 510.9,-345.5 	"/>
</g>
<g>
	<g>
		<g>
			<path class="st3" d="M494.1-126.8h-5.6l-0.9,3h-3l5.1-15.7h3.3l5.1,15.7h-3L494.1-126.8z M493.4-129.3l-2-6.6l-2,6.6H493.4z"/>
			<path class="st3" d="M509.9-130.5c0.5,0.7,0.8,1.5,0.8,2.5c0,0.8-0.2,1.6-0.6,2.2c-0.4,0.6-0.9,1.1-1.6,1.5
				c-0.7,0.4-1.5,0.5-2.5,0.5H500v-15.7h5.8c1,0,1.8,0.2,2.5,0.5c0.7,0.3,1.2,0.8,1.6,1.4c0.4,0.6,0.5,1.3,0.5,2.1
				c0,0.9-0.2,1.7-0.7,2.3c-0.4,0.6-1,1.1-1.8,1.3C508.8-131.6,509.4-131.2,509.9-130.5z M502.8-133h2.6c0.7,0,1.2-0.2,1.6-0.5
				c0.4-0.3,0.5-0.8,0.5-1.5s-0.2-1.1-0.5-1.5c-0.4-0.3-0.9-0.5-1.6-0.5h-2.6V-133z M507.3-126.9c0.4-0.4,0.6-0.9,0.6-1.5
				c0-0.7-0.2-1.2-0.6-1.6s-1-0.6-1.6-0.6h-2.8v4.2h2.9C506.3-126.3,506.9-126.5,507.3-126.9z"/>
		</g>
		<g>
			<path class="st3" d="M426.7-127c0,0.4,0.3,0.7,0.7,0.7h6.2l-0.8,2.5h-6.6c-1.3,0-2.3-1-2.3-2.3v-13.4h2.8V-127z"/>
			<path class="st3" d="M444.1-126.8h-5.6l-0.9,3h-3l5.1-15.7h3.3l5.1,15.7h-3L444.1-126.8z M443.4-129.3l-2-6.6l-2,6.6H443.4z"/>
		</g>
		<path class="st3" d="M465.4-139.5v15.7h-2.8V-134l-3.8,10.2h-2.1l-3.8-10.2v10.2H450v-15.7h3.2l4.5,11.7l4.5-11.7H465.4z"/>
		<path class="st3" d="M471-139.5v15.7h-2.8v-15.7H471z"/>
		<path class="st3" d="M477.4-126.3c-0.4,0-0.7-0.3-0.7-0.7v-8.6l-2.8,2.2v7.2c0,1.3,1,2.3,2.3,2.3h6.6l0.8-2.5H477.4z"/>
		<polygon class="st1" points="476.6,-137.7 473.8,-135.5 473.8,-139.5 476.6,-139.5 		"/>
	</g>
	<path class="st1" d="M469.7-208.8v4l-10.3,10.3v-13.1c2.5-0.8,5.1-1.3,7.9-1.3C468.1-208.9,468.9-208.8,469.7-208.8L469.7-208.8z"
		/>
	<path class="st4" d="M477.1-169.2h8.6c3.3-4.9,5.7-10.3,5.7-15.5c0-12.5-9.5-22.8-21.7-24v4l-10.3,10.3v-13.1
		c-9.5,3.3-16.3,12.2-16.3,22.8c-0.2,16.4,24.1,35,24.1,35s4.8-3.7,10.1-9.2h-0.2c-9.7,0-17.7-8-17.7-17.7v-12.8l10.3-10.3v23.1
		C469.7-172.6,473.1-169.2,477.1-169.2z"/>
</g>
<g>
	<path class="st1" d="M298.5-371.6v4l-10.3,10.3v-13.1c2.5-0.8,5.1-1.3,7.9-1.3C296.9-371.7,297.7-371.6,298.5-371.6L298.5-371.6z"
		/>
	<path class="st4" d="M305.9-332h8.6c3.3-4.9,5.7-10.3,5.7-15.5c0-12.5-9.5-22.8-21.7-24v4l-10.3,10.3v-13.1
		c-9.5,3.3-16.3,12.2-16.3,22.8c-0.2,16.4,24.1,35,24.1,35s4.8-3.7,10.1-9.2h-0.2c-9.7,0-17.7-8-17.7-17.7v-12.8l10.3-10.3v23.1
		C298.5-335.4,301.9-332,305.9-332z"/>
</g>
</svg>
