<?xml version="1.0" encoding="utf-8"?>
<!-- Generator: Adobe Illustrator 26.3.1, SVG Export Plug-In . SVG Version: 6.00 Build 0)  -->
<svg version="1.1" id="레이어_1" xmlns="http://www.w3.org/2000/svg" xmlns:xlink="http://www.w3.org/1999/xlink" x="0px"
	 y="0px" viewBox="0 0 30 30" style="enable-background:new 0 0 30 30;" xml:space="preserve">
<style type="text/css">
	.st0{fill:none;stroke:#79BF6C;stroke-width:2;stroke-linecap:round;stroke-linejoin:round;}
	.st1{opacity:0.2;fill:#E84846;enable-background:new    ;}
	.st2{fill:none;stroke:#E84846;stroke-width:2;stroke-linecap:round;stroke-linejoin:round;}
	.st3{opacity:0.2;fill:#8F59A0;enable-background:new    ;}
	.st4{fill:none;stroke:#8F59A0;stroke-width:2;stroke-linecap:round;stroke-linejoin:round;}
	.st5{fill:none;stroke:#B8AE31;stroke-width:2;stroke-linecap:round;stroke-linejoin:round;}
	.st6{fill:none;stroke:#5AB76C;stroke-width:2;stroke-linecap:round;stroke-linejoin:round;}
	.st7{opacity:0.2;fill:#3CB5D1;enable-background:new    ;}
	.st8{fill:none;stroke:#3CB5D1;stroke-width:2;stroke-linecap:round;stroke-linejoin:round;}
	.st9{opacity:0.2;fill:#CE8C3E;enable-background:new    ;}
	.st10{fill:none;stroke:#CE8C3E;stroke-width:2;stroke-linecap:round;stroke-linejoin:round;}
	.st11{opacity:0.2;fill:#CB3A8E;enable-background:new    ;}
	.st12{fill:none;stroke:#CB3A8E;stroke-width:2;stroke-linecap:round;stroke-linejoin:round;}
	.st13{fill:none;stroke:#3D59A6;stroke-width:2;stroke-linecap:round;stroke-linejoin:round;}
</style>
<g>
	<path class="st0" d="M-80.7-4L-88-2.2v-15.5l7.3-1.7"/>
	<path class="st0" d="M-73.3-0.5L-80.7-4v-15.5l7.3,3.5V-0.5z"/>
	<path class="st0" d="M-73.3-16l7.3-1.7v15.5l-7.3,1.7"/>
</g>
<g>
	<path class="st1" d="M-72.9,11.3c-0.1,0.1-0.1,0.2-0.1,0.4v8.8c0,0.1,0,0.3,0.1,0.4c0.1,0.1,0.2,0.2,0.3,0.3l10.1,4.4
		c0.1,0.1,0.3,0.1,0.4,0.1l0,0l0.1-9.5L-72.9,11.3z"/>
	<path class="st2" d="M-51,20.4v-8.8c0-0.1,0-0.3-0.1-0.4c-0.1-0.1-0.2-0.2-0.3-0.3l-10.1-4.4c-0.1-0.1-0.3-0.1-0.4-0.1
		s-0.3,0-0.4,0.1L-72.5,11c-0.1,0.1-0.3,0.2-0.3,0.3c-0.1,0.1-0.1,0.2-0.1,0.4v8.8c0,0.1,0,0.3,0.1,0.4c0.1,0.1,0.2,0.2,0.3,0.3
		l10.1,4.4c0.1,0.1,0.3,0.1,0.4,0.1s0.3,0,0.4-0.1l10.1-4.4c0.1-0.1,0.3-0.2,0.3-0.3C-51,20.6-51,20.5-51,20.4L-51,20.4z"/>
	<path class="st2" d="M-51.1,11.3L-61.9,16l-11-4.7"/>
	<path class="st2" d="M-61.9,16l-0.1,9.5"/>
</g>
<g>
	<path class="st3" d="M-56.3,38h4.4c0.5,0,0.9,0.4,0.9,0.9v4.3c0,0.5-0.4,0.9-0.9,0.9h-4.4c-0.5,0-0.9-0.4-0.9-0.9v-4.3
		C-57.2,38.4-56.8,38-56.3,38z"/>
	<path class="st3" d="M-72.1,31.5h5.3c0.5,0,0.9,0.4,0.9,0.9v5.2c0,0.5-0.4,0.9-0.9,0.9h-5.3c-0.5,0-0.9-0.4-0.9-0.9v-5.2
		C-73,31.9-72.6,31.5-72.1,31.5z"/>
	<path class="st3" d="M-72.1,43.6h5.3c0.5,0,0.9,0.4,0.9,0.9v5.2c0,0.5-0.4,0.9-0.9,0.9h-5.3c-0.5,0-0.9-0.4-0.9-0.9v-5.2
		C-73,44-72.6,43.6-72.1,43.6z"/>
	<path class="st4" d="M-56.3,38h4.4c0.5,0,0.9,0.4,0.9,0.9v4.3c0,0.5-0.4,0.9-0.9,0.9h-4.4c-0.5,0-0.9-0.4-0.9-0.9v-4.3
		C-57.2,38.4-56.8,38-56.3,38z"/>
	<path class="st4" d="M-72.1,31.5h5.3c0.5,0,0.9,0.4,0.9,0.9v5.2c0,0.5-0.4,0.9-0.9,0.9h-5.3c-0.5,0-0.9-0.4-0.9-0.9v-5.2
		C-73,31.9-72.6,31.5-72.1,31.5z"/>
	<path class="st4" d="M-72.1,43.6h5.3c0.5,0,0.9,0.4,0.9,0.9v5.2c0,0.5-0.4,0.9-0.9,0.9h-5.3c-0.5,0-0.9-0.4-0.9-0.9v-5.2
		C-73,44-72.6,43.6-72.1,43.6z"/>
	<path class="st4" d="M-57.2,41h-4.4"/>
	<path class="st4" d="M-66,47h1.8c0.3,0,0.7-0.1,1-0.2c0.3-0.1,0.6-0.3,0.9-0.6s0.4-0.5,0.6-0.8c0.1-0.3,0.2-0.7,0.2-1v-6.9
		c0-0.3-0.1-0.7-0.2-1c-0.1-0.3-0.3-0.6-0.6-0.8c-0.2-0.2-0.5-0.4-0.9-0.6c-0.3-0.1-0.7-0.2-1-0.2H-66"/>
</g>
<g>
	<path class="st5" d="M-63,64.2l-6.7,6.4l-3.4-3.2"/>
	<path class="st5" d="M-68,78c6.1,0,11-4.9,11-11c0-6.1-4.9-11-11-11c-6.1,0-11,4.9-11,11C-79,73.1-74.1,78-68,78z"/>
</g>
<g>
	<path class="st6" d="M15,7.9C7.1,7.9,4,15,4,15s3.1,7.1,11,7.1S26,15,26,15S22.9,7.9,15,7.9z"/>
	<path class="st6" d="M15,18.9c2.2,0,3.9-1.8,3.9-3.9s-1.8-3.9-3.9-3.9s-3.9,1.8-3.9,3.9S12.8,18.9,15,18.9z"/>
</g>
<g>
	<path class="st7" d="M66.3,67.8c1.2,0,2.3-1,2.3-2.3c0-1.2-1-2.3-2.3-2.3s-2.3,1-2.3,2.3C64,66.8,65,67.8,66.3,67.8z"/>
	<path class="st8" d="M66.3,71.8c3.4,0,6.2-2.8,6.2-6.2c0-3.4-2.8-6.2-6.2-6.2c-3.4,0-6.2,2.8-6.2,6.2C60.1,69,62.9,71.8,66.3,71.8z
		"/>
	<path class="st8" d="M66.3,58v2.8"/>
	<path class="st8" d="M58.7,65.6h2.8"/>
	<path class="st8" d="M66.3,73.2v-2.8"/>
	<path class="st8" d="M73.9,65.6h-2.8"/>
	<path class="st8" d="M66.3,67.8c1.2,0,2.3-1,2.3-2.3c0-1.2-1-2.3-2.3-2.3s-2.3,1-2.3,2.3C64,66.8,65,67.8,66.3,67.8z"/>
</g>
<g>
	<path class="st9" d="M65.3,93.5c1.9,0,3.4-1.5,3.4-3.4c0-1.9-1.5-3.4-3.4-3.4c-1.9,0-3.4,1.5-3.4,3.4C61.9,92,63.4,93.5,65.3,93.5z
		"/>
	<path class="st10" d="M65.3,90.1l6.8-6.8"/>
	<path class="st10" d="M70.1,85.3c-1.2-1.2-2.8-1.9-4.5-2s-3.4,0.5-4.7,1.6c-1.3,1.1-2.1,2.6-2.4,4.3c-0.2,1.7,0.2,3.4,1.2,4.8
		c1,1.4,2.4,2.4,4.1,2.7c1.7,0.4,3.4,0.1,4.9-0.8c1.5-0.9,2.6-2.2,3.1-3.9c0.5-1.6,0.4-3.4-0.4-4.9"/>
	<path class="st10" d="M67.7,87.7c-0.6-0.6-1.3-0.9-2.1-1c-0.8-0.1-1.6,0.1-2.2,0.6c-0.6,0.4-1.1,1.1-1.3,1.9
		c-0.2,0.8-0.2,1.6,0.2,2.3c0.3,0.7,0.9,1.3,1.6,1.6c0.7,0.3,1.5,0.4,2.3,0.2c0.8-0.2,1.4-0.6,1.9-1.3s0.7-1.4,0.7-2.2"/>
</g>
<g>
	<path class="st11" d="M68.2,121.5c1.2,0,2.3-1,2.3-2.3s-1-2.3-2.3-2.3s-2.3,1-2.3,2.3S67,121.5,68.2,121.5z"/>
	<path class="st11" d="M68.2,111.3c1.2,0,2.3-1,2.3-2.3c0-1.2-1-2.3-2.3-2.3s-2.3,1-2.3,2.3C66,110.3,67,111.3,68.2,111.3z"/>
	<path class="st12" d="M60.3,116.4c1.2,0,2.3-1,2.3-2.3c0-1.2-1-2.3-2.3-2.3c-1.2,0-2.3,1-2.3,2.3C58.1,115.4,59.1,116.4,60.3,116.4
		z"/>
	<path class="st12" d="M68.2,121.5c1.2,0,2.3-1,2.3-2.3s-1-2.3-2.3-2.3s-2.3,1-2.3,2.3S67,121.5,68.2,121.5z"/>
	<path class="st12" d="M68.2,111.3c1.2,0,2.3-1,2.3-2.3c0-1.2-1-2.3-2.3-2.3s-2.3,1-2.3,2.3C66,110.3,67,111.3,68.2,111.3z"/>
	<path class="st12" d="M66.3,110.3l-4.1,2.6"/>
	<path class="st12" d="M62.2,115.4l4.1,2.6"/>
</g>
<g>
	<path class="st13" d="M-74.8-28.5c1.5,0,2.8-1.2,2.8-2.7c0-1.5-1.2-2.7-2.8-2.7s-2.8,1.2-2.8,2.7C-77.5-29.7-76.3-28.5-74.8-28.5z"
		/>
	<path class="st13" d="M-89.4-47.5h11c1,0,1.9,0.4,2.6,1.1s1.1,1.6,1.1,2.6c0,1-0.4,1.9-1.1,2.6c-0.7,0.7-1.6,1.1-2.6,1.1h-11
		c-1.2,0-2.4,0.5-3.2,1.3c-0.9,0.8-1.3,2-1.3,3.2c0,1.2,0.5,2.4,1.3,3.2c0.9,0.8,2,1.3,3.2,1.3h11.9"/>
</g>
</svg>
