<?xml version="1.0" encoding="utf-8"?>
<!-- Generator: Adobe Illustrator 27.7.0, SVG Export Plug-In . SVG Version: 6.00 Build 0)  -->
<svg version="1.1" id="레이어_1" xmlns="http://www.w3.org/2000/svg" xmlns:xlink="http://www.w3.org/1999/xlink" x="0px"
	 y="0px" viewBox="0 0 50 60.5" style="enable-background:new 0 0 50 60.5;" xml:space="preserve">
<style type="text/css">
	.st0{fill:#0054A5;}
	.st1{fill:#F18B2C;}
	.st2{fill-rule:evenodd;clip-rule:evenodd;fill:#0054A5;}
	.st3{fill:#FFFFFF;}
	.st4{fill-rule:evenodd;clip-rule:evenodd;fill:#FFFFFF;}
</style>
<g>
	<g>
		<path class="st0" d="M463-26.3h-6.7l-1.1,3.5h-3.5l6-18.6h3.9l6,18.6h-3.5L463-26.3z M462.1-29.3l-2.4-7.8l-2.4,7.8H462.1z"/>
		<path class="st0" d="M481.7-30.7c0.6,0.9,0.9,1.8,0.9,2.9c0,1-0.2,1.9-0.7,2.6c-0.4,0.8-1.1,1.3-1.9,1.8c-0.8,0.4-1.8,0.6-2.9,0.6
			h-7.2v-18.6h6.9c1.1,0,2.1,0.2,2.9,0.6c0.8,0.4,1.4,1,1.9,1.7c0.4,0.7,0.6,1.6,0.6,2.5c0,1.1-0.3,2-0.8,2.7
			c-0.5,0.7-1.2,1.2-2.1,1.5C480.3-32.1,481.1-31.6,481.7-30.7z M473.2-33.7h3.1c0.8,0,1.4-0.2,1.8-0.6c0.4-0.4,0.6-1,0.6-1.7
			s-0.2-1.3-0.6-1.7c-0.4-0.4-1-0.6-1.8-0.6h-3.1V-33.7z M478.5-26.5c0.5-0.4,0.7-1,0.7-1.8c0-0.8-0.2-1.4-0.7-1.9
			c-0.5-0.5-1.1-0.7-1.9-0.7h-3.3v5h3.4C477.4-25.8,478.1-26,478.5-26.5z"/>
	</g>
	<g>
		<path class="st0" d="M383.3-26.6c0,0.5,0.4,0.8,0.8,0.8h7.3l-1,3h-7.8c-1.5,0-2.8-1.2-2.8-2.8v-15.8h3.3V-26.6z"/>
		<path class="st0" d="M404-26.3h-6.6l-1.1,3.5h-3.5l6-18.6h3.9l6,18.6h-3.5L404-26.3z M403-29.3l-2.4-7.8l-2.4,7.8H403z"/>
	</g>
	<path class="st0" d="M429-41.3v18.6h-3.3v-12.1l-4.5,12.1h-2.5l-4.5-12.1v12.1h-3.3v-18.6h3.8l5.3,13.8l5.3-13.8H429z"/>
	<path class="st0" d="M435.7-41.3v18.6h-3.3v-18.6H435.7z"/>
	<path class="st0" d="M443.2-25.7c-0.5,0-0.8-0.4-0.8-0.8v-10.1l-3.3,2.6v8.6c0,1.5,1.2,2.8,2.8,2.8h7.8l1-3H443.2z"/>
	<polygon class="st1" points="442.3,-39.3 439,-36.7 439,-41.3 442.3,-41.3 	"/>
</g>
<g>
	<g>
		<g>
			<path class="st0" d="M-144.9,126.8h-6.7l-1.1,3.5h-3.5l6-18.6h3.9l6,18.6h-3.5L-144.9,126.8z M-145.8,123.9l-2.4-7.8l-2.4,7.8
				H-145.8z"/>
			<path class="st0" d="M-126.2,122.4c0.6,0.9,0.9,1.8,0.9,2.9c0,1-0.2,1.9-0.7,2.6s-1.1,1.3-1.9,1.8c-0.8,0.4-1.8,0.6-2.9,0.6h-7.2
				v-18.6h6.9c1.1,0,2.1,0.2,2.9,0.6c0.8,0.4,1.4,1,1.9,1.7c0.4,0.7,0.6,1.6,0.6,2.5c0,1.1-0.3,2-0.8,2.7c-0.5,0.7-1.2,1.2-2.1,1.5
				C-127.6,121.1-126.8,121.6-126.2,122.4z M-134.6,119.5h3.1c0.8,0,1.4-0.2,1.8-0.6c0.4-0.4,0.6-1,0.6-1.7s-0.2-1.3-0.6-1.7
				c-0.4-0.4-1-0.6-1.8-0.6h-3.1V119.5z M-129.3,126.7c0.5-0.4,0.7-1,0.7-1.8c0-0.8-0.2-1.4-0.7-1.9c-0.5-0.5-1.1-0.7-1.9-0.7h-3.3
				v5h3.4C-130.4,127.3-129.8,127.1-129.3,126.7z"/>
		</g>
		<g>
			<path class="st0" d="M-224.6,126.6c0,0.5,0.4,0.8,0.8,0.8h7.3l-1,3h-7.8c-1.5,0-2.8-1.2-2.8-2.8v-15.8h3.3V126.6z"/>
			<path class="st0" d="M-203.9,126.8h-6.6l-1.1,3.5h-3.5l6-18.6h3.9l6,18.6h-3.5L-203.9,126.8z M-204.8,123.9l-2.4-7.8l-2.4,7.8
				H-204.8z"/>
		</g>
		<path class="st0" d="M-178.8,111.8v18.6h-3.3v-12.1l-4.5,12.1h-2.5l-4.5-12.1v12.1h-3.3v-18.6h3.8l5.3,13.8l5.3-13.8H-178.8z"/>
		<path class="st0" d="M-172.2,111.8v18.6h-3.3v-18.6H-172.2z"/>
		<path class="st0" d="M-164.7,127.4c-0.5,0-0.8-0.4-0.8-0.8v-10.1l-3.3,2.6v8.6c0,1.5,1.2,2.8,2.8,2.8h7.8l1-3H-164.7z"/>
		<polygon class="st1" points="-165.5,113.9 -168.9,116.5 -168.9,111.8 -165.5,111.8 		"/>
	</g>
	<g>
		<path class="st1" d="M-247.1,105.3v2.2l-5.5,5.5v-7c1.3-0.5,2.7-0.7,4.2-0.7C-248,105.3-247.5,105.3-247.1,105.3L-247.1,105.3z"/>
		<path class="st2" d="M-243.1,126.5h4.6c1.8-2.6,3-5.5,3-8.3c0-6.7-5.1-12.2-11.6-12.9v2.2l-5.5,5.5v-7c-5.1,1.7-8.7,6.6-8.7,12.2
			c-0.1,8.8,12.9,18.7,12.9,18.7s2.6-2,5.4-4.9h-0.1c-5.2,0-9.5-4.3-9.5-9.5v-6.9l5.5-5.5v12.4
			C-247.1,124.7-245.3,126.5-243.1,126.5z"/>
	</g>
</g>
<g>
	<g>
		<g>
			<path class="st0" d="M-266,9h-5.6l-0.9,3h-3l5.1-15.7h3.3l5.1,15.7h-3L-266,9z M-266.8,6.5l-2-6.6l-2,6.6H-266.8z"/>
			<path class="st0" d="M-250.2,5.3c0.5,0.7,0.8,1.5,0.8,2.5c0,0.8-0.2,1.6-0.6,2.2s-0.9,1.1-1.6,1.5c-0.7,0.4-1.5,0.5-2.5,0.5h-6.1
				V-3.7h5.8c1,0,1.8,0.2,2.5,0.5c0.7,0.3,1.2,0.8,1.6,1.4c0.4,0.6,0.5,1.3,0.5,2.1c0,0.9-0.2,1.7-0.7,2.3c-0.4,0.6-1,1.1-1.8,1.3
				C-251.4,4.1-250.7,4.5-250.2,5.3z M-257.3,2.8h2.6c0.7,0,1.2-0.2,1.6-0.5c0.4-0.3,0.5-0.8,0.5-1.5s-0.2-1.1-0.5-1.5
				c-0.4-0.3-0.9-0.5-1.6-0.5h-2.6V2.8z M-252.9,8.9c0.4-0.4,0.6-0.9,0.6-1.5c0-0.7-0.2-1.2-0.6-1.6c-0.4-0.4-1-0.6-1.6-0.6h-2.8
				v4.2h2.9C-253.8,9.4-253.3,9.2-252.9,8.9z"/>
		</g>
		<g>
			<path class="st0" d="M-333.5,8.8c0,0.4,0.3,0.7,0.7,0.7h6.2l-0.8,2.5h-6.6c-1.3,0-2.3-1-2.3-2.3V-3.7h2.8V8.8z"/>
			<path class="st0" d="M-316,9h-5.6l-0.9,3h-3l5.1-15.7h3.3l5.1,15.7h-3L-316,9z M-316.8,6.5l-2-6.6l-2,6.6H-316.8z"/>
		</g>
		<path class="st0" d="M-294.8-3.7V12h-2.8V1.8l-3.8,10.2h-2.1l-3.8-10.2V12h-2.8V-3.7h3.2l4.5,11.7l4.5-11.7H-294.8z"/>
		<path class="st0" d="M-289.1-3.7V12h-2.8V-3.7H-289.1z"/>
		<path class="st0" d="M-282.8,9.5c-0.4,0-0.7-0.3-0.7-0.7V0.2l-2.8,2.2v7.2c0,1.3,1,2.3,2.3,2.3h6.6l0.8-2.5H-282.8z"/>
		<polygon class="st1" points="-283.5,-2 -286.3,0.2 -286.3,-3.7 -283.5,-3.7 		"/>
	</g>
	<path class="st1" d="M-290.5-73v4l-10.3,10.3v-13.1c2.5-0.8,5.1-1.3,7.9-1.3C-292.1-73.1-291.3-73.1-290.5-73L-290.5-73z"/>
	<path class="st2" d="M-283-33.5h8.6c3.3-4.9,5.7-10.3,5.7-15.5c0-12.5-9.5-22.8-21.7-24v4l-10.3,10.3v-13.1
		C-310.2-68.6-317-59.6-317-49c-0.2,16.4,24.1,35,24.1,35s4.8-3.7,10.1-9.2h-0.2c-9.7,0-17.7-8-17.7-17.7v-12.8l10.3-10.3v23.1
		C-290.5-36.8-287.1-33.5-283-33.5z"/>
</g>
<g>
	<path class="st1" d="M27.5,0.3v4.1L17,14.9V1.5c2.5-0.9,5.2-1.3,8-1.3C25.8,0.2,26.6,0.2,27.5,0.3L27.5,0.3z"/>
	<path class="st2" d="M35,40.5h8.7c3.3-5,5.7-10.5,5.7-15.8c0-12.7-9.7-23.1-22-24.4v4.1L17,14.9V1.5C7.4,4.8,0.5,14,0.5,24.7
		C0.3,41.4,25,60.2,25,60.2s4.9-3.7,10.3-9.3H35c-9.9,0-18-8.1-18-18v-13L27.5,9.5v23.5C27.5,37.1,30.9,40.5,35,40.5z"/>
</g>
<g>
	<g>
		<g>
			<path class="st3" d="M30.7,211h-6.7l-1.1,3.5h-3.5l6-18.6h3.9l6,18.6h-3.5L30.7,211z M29.8,208.1l-2.4-7.8l-2.4,7.8H29.8z"/>
			<path class="st3" d="M49.4,206.6c0.6,0.9,0.9,1.8,0.9,2.9c0,1-0.2,1.9-0.7,2.6c-0.4,0.8-1.1,1.3-1.9,1.8
				c-0.8,0.4-1.8,0.6-2.9,0.6h-7.2V196h6.9c1.1,0,2.1,0.2,2.9,0.6c0.8,0.4,1.4,1,1.9,1.7c0.4,0.7,0.6,1.6,0.6,2.5
				c0,1.1-0.3,2-0.8,2.7c-0.5,0.7-1.2,1.2-2.1,1.5C48,205.3,48.8,205.8,49.4,206.6z M41,203.7H44c0.8,0,1.4-0.2,1.8-0.6
				c0.4-0.4,0.6-1,0.6-1.7s-0.2-1.3-0.6-1.7c-0.4-0.4-1-0.6-1.8-0.6H41V203.7z M46.3,210.9c0.5-0.4,0.7-1,0.7-1.8
				c0-0.8-0.2-1.4-0.7-1.9c-0.5-0.5-1.1-0.7-1.9-0.7H41v5h3.4C45.2,211.5,45.8,211.3,46.3,210.9z"/>
		</g>
		<g>
			<path class="st3" d="M-49,210.8c0,0.5,0.4,0.8,0.8,0.8h7.3l-1,3h-7.8c-1.5,0-2.8-1.2-2.8-2.8V196h3.3V210.8z"/>
			<path class="st3" d="M-28.3,211H-35l-1.1,3.5h-3.5l6-18.6h3.9l6,18.6h-3.5L-28.3,211z M-29.2,208.1l-2.4-7.8l-2.4,7.8H-29.2z"/>
		</g>
		<path class="st3" d="M-3.2,196v18.6h-3.3v-12.1l-4.5,12.1h-2.5l-4.5-12.1v12.1h-3.3V196h3.8l5.3,13.8L-7,196H-3.2z"/>
		<path class="st3" d="M3.4,196v18.6H0.1V196H3.4z"/>
		<path class="st3" d="M10.9,211.6c-0.5,0-0.8-0.4-0.8-0.8v-10.1l-3.3,2.6v8.6c0,1.5,1.2,2.8,2.8,2.8h7.8l1-3H10.9z"/>
		<polygon class="st1" points="10.1,198.1 6.7,200.7 6.7,196 10.1,196 		"/>
	</g>
	<g>
		<path class="st1" d="M-71.5,189.5v2.2l-5.5,5.5v-7c1.3-0.5,2.7-0.7,4.2-0.7C-72.4,189.4-71.9,189.5-71.5,189.5L-71.5,189.5z"/>
		<path class="st4" d="M-67.5,210.7h4.6c1.8-2.6,3-5.5,3-8.3c0-6.7-5.1-12.2-11.6-12.9v2.2l-5.5,5.5v-7c-5.1,1.7-8.7,6.6-8.7,12.2
			c-0.1,8.8,12.9,18.7,12.9,18.7s2.6-2,5.4-4.9h-0.1c-5.2,0-9.5-4.3-9.5-9.5v-6.9l5.5-5.5v12.4C-71.5,208.9-69.7,210.7-67.5,210.7z"
			/>
	</g>
</g>
<g>
	<g>
		<path class="st3" d="M461.5-61.1h-6.7l-1.1,3.5h-3.5l6-18.6h3.9l6,18.6h-3.5L461.5-61.1z M460.6-64l-2.4-7.8l-2.4,7.8H460.6z"/>
		<path class="st3" d="M480.2-65.5c0.6,0.9,0.9,1.8,0.9,2.9c0,1-0.2,1.9-0.7,2.6c-0.4,0.8-1.1,1.3-1.9,1.8c-0.8,0.4-1.8,0.6-2.9,0.6
			h-7.2v-18.6h6.9c1.1,0,2.1,0.2,2.9,0.6c0.8,0.4,1.4,1,1.9,1.7c0.4,0.7,0.6,1.6,0.6,2.5c0,1.1-0.3,2-0.8,2.7
			c-0.5,0.7-1.2,1.2-2.1,1.5C478.8-66.8,479.6-66.3,480.2-65.5z M471.7-68.4h3.1c0.8,0,1.4-0.2,1.8-0.6c0.4-0.4,0.6-1,0.6-1.7
			c0-0.7-0.2-1.3-0.6-1.7c-0.4-0.4-1-0.6-1.8-0.6h-3.1V-68.4z M477-61.2c0.5-0.4,0.7-1,0.7-1.8c0-0.8-0.2-1.4-0.7-1.9
			c-0.5-0.5-1.1-0.7-1.9-0.7h-3.3v5h3.4C475.9-60.6,476.6-60.8,477-61.2z"/>
	</g>
	<g>
		<path class="st3" d="M381.8-61.3c0,0.5,0.4,0.8,0.8,0.8h7.3l-1,3h-7.8c-1.5,0-2.8-1.2-2.8-2.8v-15.8h3.3V-61.3z"/>
		<path class="st3" d="M402.5-61.1h-6.6l-1.1,3.5h-3.5l6-18.6h3.9l6,18.6h-3.5L402.5-61.1z M401.5-64l-2.4-7.8l-2.4,7.8H401.5z"/>
	</g>
	<path class="st3" d="M427.5-76.1v18.6h-3.3v-12.1l-4.5,12.1h-2.5l-4.5-12.1v12.1h-3.3v-18.6h3.8l5.3,13.8l5.3-13.8H427.5z"/>
	<path class="st3" d="M434.2-76.1v18.6h-3.3v-18.6H434.2z"/>
	<path class="st3" d="M441.7-60.5c-0.5,0-0.8-0.4-0.8-0.8v-10.1l-3.3,2.6v8.6c0,1.5,1.2,2.8,2.8,2.8h7.8l1-3H441.7z"/>
	<polygon class="st1" points="440.8,-74 437.5,-71.4 437.5,-76.1 440.8,-76.1 	"/>
</g>
<g>
	<g>
		<g>
			<path class="st3" d="M424.1,142.7h-5.6l-0.9,3h-3l5.1-15.7h3.3l5.1,15.7h-3L424.1,142.7z M423.3,140.1l-2-6.6l-2,6.6H423.3z"/>
			<path class="st3" d="M439.9,138.9c0.5,0.7,0.8,1.5,0.8,2.5c0,0.8-0.2,1.6-0.6,2.2c-0.4,0.6-0.9,1.1-1.6,1.5
				c-0.7,0.4-1.5,0.5-2.5,0.5h-6.1v-15.7h5.8c1,0,1.8,0.2,2.5,0.5c0.7,0.3,1.2,0.8,1.6,1.4c0.4,0.6,0.5,1.3,0.5,2.1
				c0,0.9-0.2,1.7-0.7,2.3c-0.4,0.6-1,1.1-1.8,1.3C438.8,137.8,439.4,138.2,439.9,138.9z M432.8,136.4h2.6c0.7,0,1.2-0.2,1.6-0.5
				c0.4-0.3,0.5-0.8,0.5-1.5c0-0.6-0.2-1.1-0.5-1.5c-0.4-0.3-0.9-0.5-1.6-0.5h-2.6V136.4z M437.2,142.5c0.4-0.4,0.6-0.9,0.6-1.5
				c0-0.7-0.2-1.2-0.6-1.6c-0.4-0.4-1-0.6-1.6-0.6h-2.8v4.2h2.9C436.3,143.1,436.9,142.9,437.2,142.5z"/>
		</g>
		<g>
			<path class="st3" d="M356.6,142.4c0,0.4,0.3,0.7,0.7,0.7h6.2l-0.8,2.5h-6.6c-1.3,0-2.3-1-2.3-2.3v-13.4h2.8V142.4z"/>
			<path class="st3" d="M374.1,142.7h-5.6l-0.9,3h-3l5.1-15.7h3.3l5.1,15.7h-3L374.1,142.7z M373.4,140.1l-2-6.6l-2,6.6H373.4z"/>
		</g>
		<path class="st3" d="M395.4,129.9v15.7h-2.8v-10.2l-3.8,10.2h-2.1l-3.8-10.2v10.2H380v-15.7h3.2l4.5,11.7l4.5-11.7H395.4z"/>
		<path class="st3" d="M401,129.9v15.7h-2.8v-15.7H401z"/>
		<path class="st3" d="M407.3,143.2c-0.4,0-0.7-0.3-0.7-0.7v-8.6l-2.8,2.2v7.2c0,1.3,1,2.3,2.3,2.3h6.6l0.8-2.5H407.3z"/>
		<polygon class="st1" points="406.6,131.7 403.8,133.9 403.8,129.9 406.6,129.9 		"/>
	</g>
	<path class="st1" d="M399.7,60.6v4L389.4,75V61.8c2.5-0.8,5.1-1.3,7.9-1.3C398.1,60.5,398.9,60.6,399.7,60.6L399.7,60.6z"/>
	<path class="st4" d="M407.1,100.2h8.6c3.3-4.9,5.7-10.3,5.7-15.5c0-12.5-9.5-22.8-21.7-24v4L389.4,75V61.8
		c-9.5,3.3-16.3,12.2-16.3,22.8c-0.2,16.4,24.1,35,24.1,35s4.8-3.7,10.1-9.2h-0.2c-9.7,0-17.7-8-17.7-17.7V79.9l10.3-10.3v23.1
		C399.7,96.8,403,100.2,407.1,100.2z"/>
</g>
<g>
	<path class="st1" d="M228.5-102.1v4l-10.3,10.3V-101c2.5-0.8,5.1-1.3,7.9-1.3C226.9-102.3,227.7-102.2,228.5-102.1L228.5-102.1z"/>
	<path class="st4" d="M235.9-62.6h8.6c3.3-4.9,5.7-10.3,5.7-15.5c0-12.5-9.5-22.8-21.7-24v4l-10.3,10.3V-101
		c-9.5,3.3-16.3,12.2-16.3,22.8c-0.2,16.4,24.1,35,24.1,35s4.8-3.7,10.1-9.2h-0.2c-9.7,0-17.7-8-17.7-17.7v-12.8l10.3-10.3V-70
		C228.5-66,231.9-62.6,235.9-62.6z"/>
</g>
</svg>
