<?xml version="1.0" encoding="utf-8"?>
<!-- Generator: Adobe Illustrator 26.3.1, SVG Export Plug-In . SVG Version: 6.00 Build 0)  -->
<svg version="1.1" id="Layer_1" xmlns="http://www.w3.org/2000/svg" xmlns:xlink="http://www.w3.org/1999/xlink" x="0px" y="0px"
	 viewBox="0 0 205.4 146" style="enable-background:new 0 0 205.4 146;" xml:space="preserve">
<style type="text/css">
	.st0{fill:none;stroke:#AEACBC;stroke-width:10;stroke-miterlimit:10;}
</style>
<g>
	<path class="st0" d="M190.8,28.7c-2.1-7.9-8.4-14.1-16.3-16.3c-14.3-3.8-71.9-3.8-71.9-3.8s-57.5,0-71.9,3.8
		c-7.9,2.1-14.1,8.3-16.3,16.3C10.7,43.1,10.7,73,10.7,73s0,29.9,3.8,44.3c2.1,7.9,8.4,14.1,16.3,16.3c14.3,3.8,71.9,3.8,71.9,3.8
		s57.5,0,71.9-3.8c7.9-2.1,14.1-8.3,16.3-16.3c3.8-14.3,3.8-44.3,3.8-44.3S194.7,43.1,190.8,28.7"/>
	<polygon class="st0" points="84.3,100.6 132.1,73 84.3,45.4 	"/>
</g>
</svg>
